RedHatText-LightItalic.ufo
<glyph name="dollar" format="2">
  <advance width="527"/>
  <unicode hex="0024"/>
  <outline>
    <contour>
      <point x="171" y="-67" type="line"/>
      <point x="215" y="-67" type="line"/>
      <point x="234" y="23" type="line"/>
      <point x="377" y="23"/>
      <point x="469" y="97"/>
      <point x="469" y="201" type="curve" smooth="yes"/>
      <point x="469" y="274"/>
      <point x="434" y="318"/>
      <point x="334" y="360" type="curve" smooth="yes"/>
      <point x="308" y="371" type="line"/>
      <point x="363" y="629" type="line"/>
      <point x="411" y="619"/>
      <point x="455" y="593"/>
      <point x="493" y="551" type="curve"/>
      <point x="527" y="581" type="line"/>
      <point x="483" y="629"/>
      <point x="428" y="660"/>
      <point x="372" y="671" type="curve"/>
      <point x="392" y="767" type="line"/>
      <point x="348" y="767" type="line"/>
      <point x="329" y="676" type="line"/>
      <point x="193" y="676"/>
      <point x="107" y="610"/>
      <point x="107" y="506" type="curve" smooth="yes"/>
      <point x="107" y="435"/>
      <point x="145" y="384"/>
      <point x="232" y="349" type="curve" smooth="yes"/>
      <point x="257" y="339" type="line"/>
      <point x="200" y="69" type="line"/>
      <point x="147" y="78"/>
      <point x="103" y="104"/>
      <point x="56" y="151" type="curve"/>
      <point x="24" y="119" type="line"/>
      <point x="74" y="68"/>
      <point x="129" y="38"/>
      <point x="191" y="27" type="curve"/>
    </contour>
    <contour>
      <point x="266" y="383" type="line"/>
      <point x="241" y="394" type="line" smooth="yes"/>
      <point x="180" y="421"/>
      <point x="154" y="457"/>
      <point x="154" y="507" type="curve" smooth="yes"/>
      <point x="154" y="584"/>
      <point x="219" y="633"/>
      <point x="320" y="633" type="curve"/>
    </contour>
    <contour>
      <point x="243" y="66" type="curve"/>
      <point x="298" y="326" type="line"/>
      <point x="321" y="316" type="line" smooth="yes"/>
      <point x="395" y="284"/>
      <point x="422" y="254"/>
      <point x="422" y="202" type="curve" smooth="yes"/>
      <point x="422" y="123"/>
      <point x="348" y="66"/>
    </contour>
  </outline>
</glyph>
<glyph name="ampersand" format="2">
  <advance width="649"/>
  <unicode hex="0026"/>
  <outline>
    <contour>
      <point x="589" y="23" type="line"/>
      <point x="558" y="51"/>
      <point x="527" y="82"/>
      <point x="496" y="116" type="curve"/>
      <point x="551" y="176"/>
      <point x="596" y="247"/>
      <point x="630" y="332" type="curve"/>
      <point x="583" y="345" type="line"/>
      <point x="555" y="271"/>
      <point x="514" y="204"/>
      <point x="466" y="150" type="curve"/>
      <point x="408" y="219"/>
      <point x="350" y="297"/>
      <point x="297" y="382" type="curve"/>
      <point x="352" y="410" type="line" smooth="yes"/>
      <point x="461" y="465"/>
      <point x="502" y="513"/>
      <point x="502" y="586" type="curve" smooth="yes"/>
      <point x="502" y="659"/>
      <point x="446" y="711"/>
      <point x="367" y="711" type="curve" smooth="yes"/>
      <point x="269" y="711"/>
      <point x="194" y="635"/>
      <point x="194" y="534" type="curve" smooth="yes"/>
      <point x="194" y="490"/>
      <point x="204" y="456"/>
      <point x="233" y="401" type="curve"/>
      <point x="71" y="327"/>
      <point x="25" y="264"/>
      <point x="25" y="175" type="curve" smooth="yes"/>
      <point x="25" y="65"/>
      <point x="114" y="-11"/>
      <point x="242" y="-11" type="curve" smooth="yes"/>
      <point x="325" y="-11"/>
      <point x="401" y="20"/>
      <point x="463" y="80" type="curve"/>
      <point x="494" y="46"/>
      <point x="525" y="15"/>
      <point x="555" y="-11" type="curve"/>
    </contour>
    <contour>
      <point x="243" y="533" type="curve" smooth="yes"/>
      <point x="243" y="609"/>
      <point x="295" y="666"/>
      <point x="365" y="666" type="curve" smooth="yes"/>
      <point x="418" y="666"/>
      <point x="453" y="633"/>
      <point x="453" y="582" type="curve" smooth="yes"/>
      <point x="453" y="529"/>
      <point x="420" y="491"/>
      <point x="344" y="453" type="curve" smooth="yes"/>
      <point x="278" y="420" type="line"/>
      <point x="252" y="466"/>
      <point x="243" y="497"/>
    </contour>
    <contour>
      <point x="76" y="182" type="curve" smooth="yes"/>
      <point x="76" y="249"/>
      <point x="118" y="303"/>
      <point x="252" y="363" type="curve"/>
      <point x="318" y="259"/>
      <point x="376" y="182"/>
      <point x="432" y="115" type="curve"/>
      <point x="376" y="63"/>
      <point x="311" y="35"/>
      <point x="245" y="35" type="curve" smooth="yes"/>
      <point x="144" y="35"/>
      <point x="76" y="94"/>
    </contour>
  </outline>
</glyph>
<glyph name="parenright" format="2">
  <advance width="385"/>
  <unicode hex="0029"/>
  <outline>
    <contour>
      <point x="197" y="715" type="curve"/>
      <point x="165" y="681" type="line"/>
      <point x="250" y="612"/>
      <point x="294" y="500"/>
      <point x="294" y="355" type="curve" smooth="yes"/>
      <point x="294" y="123"/>
      <point x="172" y="-93"/>
      <point x="-9" y="-180" type="curve"/>
      <point x="13" y="-220" type="line"/>
      <point x="214" y="-123"/>
      <point x="345" y="106"/>
      <point x="345" y="356" type="curve" smooth="yes"/>
      <point x="345" y="512"/>
      <point x="294" y="634"/>
    </contour>
  </outline>
</glyph>
<glyph name="hyphen" format="2">
  <advance width="443"/>
  <unicode hex="002D"/>
  <outline>
    <contour>
      <point x="66" y="258" type="line"/>
      <point x="382" y="258" type="line"/>
      <point x="393" y="302" type="line"/>
      <point x="77" y="302" type="line"/>
    </contour>
  </outline>
</glyph>
<glyph name="slash" format="2">
  <advance width="440"/>
  <unicode hex="002F"/>
  <outline>
    <contour>
      <point x="-141" y="-209" type="line"/>
      <point x="-85" y="-209" type="line"/>
      <point x="494" y="700" type="line"/>
      <point x="438" y="700" type="line"/>
    </contour>
  </outline>
</glyph>
<glyph name="zero" format="2">
  <advance width="648"/>
  <unicode hex="0030"/>
  <outline>
    <contour>
      <point x="389" y="711" type="curve" smooth="yes"/>
      <point x="233" y="711"/>
      <point x="82" y="526"/>
      <point x="82" y="272" type="curve" smooth="yes"/>
      <point x="82" y="86"/>
      <point x="178" y="-11"/>
      <point x="307" y="-11" type="curve" smooth="yes"/>
      <point x="463" y="-11"/>
      <point x="614" y="174"/>
      <point x="614" y="428" type="curve" smooth="yes"/>
      <point x="614" y="614"/>
      <point x="518" y="711"/>
    </contour>
    <contour>
      <point x="391" y="665" type="curve" smooth="yes"/>
      <point x="492" y="665"/>
      <point x="563" y="579"/>
      <point x="563" y="424" type="curve" smooth="yes"/>
      <point x="563" y="204"/>
      <point x="439" y="35"/>
      <point x="305" y="35" type="curve" smooth="yes"/>
      <point x="204" y="35"/>
      <point x="133" y="121"/>
      <point x="133" y="276" type="curve" smooth="yes"/>
      <point x="133" y="496"/>
      <point x="257" y="665"/>
    </contour>
  </outline>
</glyph>
<glyph name="one" format="2">
  <advance width="281"/>
  <unicode hex="0031"/>
  <outline>
    <contour>
      <point x="95" y="0" type="line"/>
      <point x="144" y="0" type="line"/>
      <point x="293" y="700" type="line"/>
      <point x="264" y="700" type="line"/>
      <point x="129" y="647" type="line"/>
      <point x="117" y="593" type="line"/>
      <point x="230" y="637" type="line"/>
    </contour>
  </outline>
</glyph>
<glyph name="less" format="2">
  <advance width="600"/>
  <unicode hex="003C"/>
  <outline>
    <contour>
      <point x="424" y="118" type="line"/>
      <point x="455" y="150" type="line"/>
      <point x="233" y="345" type="line"/>
      <point x="540" y="541" type="line"/>
      <point x="518" y="579" type="line"/>
      <point x="165" y="349" type="line"/>
    </contour>
  </outline>
</glyph>
<glyph name="greater" format="2">
  <advance width="600"/>
  <unicode hex="003E"/>
  <outline>
    <contour>
      <point x="241" y="579" type="line"/>
      <point x="210" y="547" type="line"/>
      <point x="432" y="352" type="line"/>
      <point x="125" y="156" type="line"/>
      <point x="147" y="118" type="line"/>
      <point x="500" y="348" type="line"/>
    </contour>
  </outline>
</glyph>
<glyph name="A" format="2">
  <advance width="626"/>
  <unicode hex="0041"/>
  <guideline x="557" y="700" angle="0.0" color="0.999,0.001,0.001,0.999" identifier="pd8AAOh555"/>
  <anchor x="404" y="700" name="top"/>
  <anchor x="564" y="0" name="bottom"/>
  <outline>
    <contour>
      <point x="-40" y="0" type="line"/>
      <point x="18" y="0" type="line"/>
      <point x="156" y="234" type="line"/>
      <point x="473" y="234" type="line"/>
      <point x="513" y="0" type="line"/>
      <point x="564" y="0" type="line"/>
      <point x="441" y="700" type="line"/>
      <point x="377" y="700" type="line"/>
    </contour>
    <contour>
      <point x="180" y="276" type="line"/>
      <point x="402" y="653" type="line"/>
      <point x="466" y="276" type="line"/>
    </contour>
  </outline>
</glyph>
<glyph name="B" format="2">
  <advance width="640"/>
  <unicode hex="0042"/>
  <outline>
    <contour>
      <point x="40" y="0" type="line"/>
      <point x="328" y="0" type="line" smooth="yes"/>
      <point x="474" y="0"/>
      <point x="573" y="93"/>
      <point x="573" y="218" type="curve" smooth="yes"/>
      <point x="573" y="291"/>
      <point x="527" y="343"/>
      <point x="447" y="361" type="curve"/>
      <point x="549" y="379"/>
      <point x="611" y="451"/>
      <point x="611" y="544" type="curve" smooth="yes"/>
      <point x="611" y="637"/>
      <point x="546" y="700"/>
      <point x="432" y="700" type="curve" smooth="yes"/>
      <point x="189" y="700" type="line"/>
    </contour>
    <contour>
      <point x="174" y="388" type="line"/>
      <point x="230" y="653" type="line"/>
      <point x="426" y="653" type="line" smooth="yes"/>
      <point x="512" y="653"/>
      <point x="561" y="608"/>
      <point x="561" y="540" type="curve" smooth="yes"/>
      <point x="561" y="453"/>
      <point x="494" y="388"/>
      <point x="388" y="388" type="curve" smooth="yes"/>
    </contour>
    <contour>
      <point x="101" y="47" type="line"/>
      <point x="164" y="342" type="line"/>
      <point x="370" y="342" type="line" smooth="yes"/>
      <point x="467" y="342"/>
      <point x="522" y="292"/>
      <point x="522" y="216" type="curve" smooth="yes"/>
      <point x="522" y="120"/>
      <point x="448" y="47"/>
      <point x="328" y="47" type="curve" smooth="yes"/>
    </contour>
  </outline>
</glyph>
<glyph name="C" format="2">
  <advance width="714"/>
  <unicode hex="0043"/>
  <anchor x="451" y="700" name="top"/>
  <anchor x="388" y="0" name="bottom"/>
  <outline>
    <contour>
      <point x="382" y="-11" type="curve" smooth="yes"/>
      <point x="484" y="-11"/>
      <point x="577" y="21"/>
      <point x="647" y="83" type="curve"/>
      <point x="615" y="121" type="line"/>
      <point x="552" y="64"/>
      <point x="474" y="37"/>
      <point x="387" y="37" type="curve" smooth="yes"/>
      <point x="230" y="37"/>
      <point x="130" y="161"/>
      <point x="130" y="309" type="curve" smooth="yes"/>
      <point x="130" y="498"/>
      <point x="277" y="663"/>
      <point x="453" y="663" type="curve" smooth="yes"/>
      <point x="548" y="663"/>
      <point x="626" y="625"/>
      <point x="676" y="555" type="curve"/>
      <point x="716" y="583" type="line"/>
      <point x="658" y="665"/>
      <point x="565" y="711"/>
      <point x="458" y="711" type="curve" smooth="yes"/>
      <point x="257" y="711"/>
      <point x="79" y="531"/>
      <point x="79" y="310" type="curve" smooth="yes"/>
      <point x="79" y="129"/>
      <point x="208" y="-11"/>
    </contour>
  </outline>
</glyph>
<glyph name="D" format="2">
  <advance width="707"/>
  <unicode hex="0044"/>
  <anchor x="435" y="700" name="top"/>
  <outline>
    <contour>
      <point x="40" y="0" type="line"/>
      <point x="292" y="0" type="line" smooth="yes"/>
      <point x="514" y="0"/>
      <point x="674" y="172"/>
      <point x="674" y="392" type="curve" smooth="yes"/>
      <point x="674" y="580"/>
      <point x="554" y="700"/>
      <point x="377" y="700" type="curve" smooth="yes"/>
      <point x="189" y="700" type="line"/>
    </contour>
    <contour>
      <point x="378" y="653" type="line" smooth="yes"/>
      <point x="524" y="653"/>
      <point x="623" y="552"/>
      <point x="623" y="393" type="curve" smooth="yes"/>
      <point x="623" y="211"/>
      <point x="490" y="47"/>
      <point x="301" y="47" type="curve" smooth="yes"/>
      <point x="101" y="47" type="line"/>
      <point x="230" y="653" type="line"/>
    </contour>
  </outline>
</glyph>
<glyph name="E" format="2">
  <advance width="594"/>
  <unicode hex="0045"/>
  <anchor x="408" y="700" name="top"/>
  <anchor x="499" y="0" name="bottom"/>
  <outline>
    <contour>
      <point x="40" y="0" type="line"/>
      <point x="499" y="0" type="line"/>
      <point x="509" y="47" type="line"/>
      <point x="101" y="47" type="line"/>
      <point x="161" y="330" type="line"/>
      <point x="441" y="330" type="line"/>
      <point x="451" y="377" type="line"/>
      <point x="171" y="377" type="line"/>
      <point x="230" y="653" type="line"/>
      <point x="634" y="653" type="line"/>
      <point x="644" y="700" type="line"/>
      <point x="189" y="700" type="line"/>
    </contour>
  </outline>
</glyph>
<glyph name="G" format="2">
  <advance width="779"/>
  <unicode hex="0047"/>
  <anchor x="447" y="700" name="top"/>
  <anchor x="388" y="0" name="bottom"/>
  <outline>
    <contour>
      <point x="382" y="-11" type="curve" smooth="yes"/>
      <point x="571" y="-11"/>
      <point x="704" y="130"/>
      <point x="739" y="310" type="curve" smooth="yes"/>
      <point x="748" y="356" type="line"/>
      <point x="455" y="356" type="line"/>
      <point x="445" y="309" type="line"/>
      <point x="689" y="309" type="line"/>
      <point x="664" y="153"/>
      <point x="548" y="37"/>
      <point x="387" y="37" type="curve" smooth="yes"/>
      <point x="230" y="37"/>
      <point x="130" y="161"/>
      <point x="130" y="309" type="curve" smooth="yes"/>
      <point x="130" y="498"/>
      <point x="277" y="663"/>
      <point x="453" y="663" type="curve" smooth="yes"/>
      <point x="547" y="663"/>
      <point x="629" y="624"/>
      <point x="683" y="551" type="curve"/>
      <point x="723" y="579" type="line"/>
      <point x="661" y="663"/>
      <point x="562" y="711"/>
      <point x="458" y="711" type="curve" smooth="yes"/>
      <point x="257" y="711"/>
      <point x="79" y="531"/>
      <point x="79" y="310" type="curve" smooth="yes"/>
      <point x="79" y="129"/>
      <point x="208" y="-11"/>
    </contour>
  </outline>
</glyph>
<glyph name="H" format="2">
  <advance width="709"/>
  <unicode hex="0048"/>
  <guideline x="600" y="700" angle="0.0" color="0.999,0.001,0.001,0.999" identifier="JB0zzPyeC1"/>
  <anchor x="453" y="700" name="top"/>
  <outline>
    <contour>
      <point x="40" y="0" type="line"/>
      <point x="91" y="0" type="line"/>
      <point x="161" y="329" type="line"/>
      <point x="586" y="329" type="line"/>
      <point x="516" y="0" type="line"/>
      <point x="567" y="0" type="line"/>
      <point x="716" y="700" type="line"/>
      <point x="665" y="700" type="line"/>
      <point x="596" y="376" type="line"/>
      <point x="171" y="376" type="line"/>
      <point x="240" y="700" type="line"/>
      <point x="189" y="700" type="line"/>
    </contour>
  </outline>
</glyph>
<glyph name="K" format="2">
  <advance width="564"/>
  <unicode hex="004B"/>
  <anchor x="283" y="0" name="bottom"/>
  <outline>
    <contour>
      <point x="40" y="0" type="line"/>
      <point x="91" y="0" type="line"/>
      <point x="165" y="348" type="line"/>
      <point x="449" y="0" type="line"/>
      <point x="517" y="0" type="line"/>
      <point x="221" y="355" type="line"/>
      <point x="662" y="700" type="line"/>
      <point x="586" y="700" type="line"/>
      <point x="170" y="372" type="line"/>
      <point x="240" y="700" type="line"/>
      <point x="189" y="700" type="line"/>
    </contour>
  </outline>
</glyph>
<glyph name="M" format="2">
  <advance width="827"/>
  <unicode hex="004D"/>
  <outline>
    <contour>
      <point x="40" y="0" type="line"/>
      <point x="88" y="0" type="line"/>
      <point x="226" y="650" type="line"/>
      <point x="373" y="50" type="line"/>
      <point x="774" y="647" type="line"/>
      <point x="637" y="0" type="line"/>
      <point x="685" y="0" type="line"/>
      <point x="834" y="700" type="line"/>
      <point x="755" y="700" type="line"/>
      <point x="395" y="157" type="line"/>
      <point x="263" y="700" type="line"/>
      <point x="189" y="700" type="line"/>
    </contour>
  </outline>
</glyph>
<glyph name="R" format="2">
  <advance width="619"/>
  <unicode hex="0052"/>
  <anchor x="401" y="700" name="top"/>
  <anchor x="252" y="0" name="bottom"/>
  <outline>
    <contour>
      <point x="39" y="0" type="line"/>
      <point x="90" y="0" type="line"/>
      <point x="156" y="308" type="line"/>
      <point x="386" y="308" type="line"/>
      <point x="472" y="0" type="line"/>
      <point x="523" y="0" type="line"/>
      <point x="436" y="311" type="line"/>
      <point x="550" y="329"/>
      <point x="628" y="414"/>
      <point x="628" y="529" type="curve" smooth="yes"/>
      <point x="628" y="635"/>
      <point x="556" y="700"/>
      <point x="440" y="700" type="curve" smooth="yes"/>
      <point x="188" y="700" type="line"/>
    </contour>
    <contour>
      <point x="166" y="355" type="line"/>
      <point x="229" y="653" type="line"/>
      <point x="433" y="653" type="line" smooth="yes"/>
      <point x="522" y="653"/>
      <point x="577" y="605"/>
      <point x="577" y="527" type="curve" smooth="yes"/>
      <point x="577" y="426"/>
      <point x="499" y="355"/>
      <point x="390" y="355" type="curve" smooth="yes"/>
    </contour>
  </outline>
</glyph>
<glyph name="T" format="2">
  <advance width="592"/>
  <unicode hex="0054"/>
  <anchor x="394" y="700" name="top"/>
  <anchor x="245" y="0" name="bottom"/>
  <outline>
    <contour>
      <point x="219" y="0" type="line"/>
      <point x="270" y="0" type="line"/>
      <point x="409" y="653" type="line"/>
      <point x="649" y="653" type="line"/>
      <point x="659" y="700" type="line"/>
      <point x="128" y="700" type="line"/>
      <point x="118" y="653" type="line"/>
      <point x="358" y="653" type="line"/>
    </contour>
  </outline>
</glyph>
<glyph name="U" format="2">
  <advance width="688"/>
  <unicode hex="0055"/>
  <guideline x="590" y="700" angle="0.0" color="0.999,0.001,0.001,0.999" identifier="TcwAtxIWG3"/>
  <anchor x="442" y="700" name="top"/>
  <anchor x="392" y="0" name="bottom"/>
  <outline>
    <contour>
      <point x="315" y="-11" type="curve" smooth="yes"/>
      <point x="467" y="-11"/>
      <point x="578" y="88"/>
      <point x="619" y="279" type="curve" smooth="yes"/>
      <point x="709" y="700" type="line"/>
      <point x="658" y="700" type="line"/>
      <point x="570" y="289" type="line" smooth="yes"/>
      <point x="534" y="120"/>
      <point x="442" y="37"/>
      <point x="314" y="37" type="curve" smooth="yes"/>
      <point x="177" y="37"/>
      <point x="106" y="139"/>
      <point x="138" y="289" type="curve" smooth="yes"/>
      <point x="226" y="700" type="line"/>
      <point x="175" y="700" type="line"/>
      <point x="89" y="299" type="line" smooth="yes"/>
      <point x="51" y="120"/>
      <point x="145" y="-11"/>
    </contour>
  </outline>
</glyph>
<glyph name="W" format="2">
  <advance width="857"/>
  <unicode hex="0057"/>
  <guideline x="673" y="700" angle="0.0" color="0.999,0.001,0.001,0.999" identifier="r7qwBTk1Cp"/>
  <anchor x="525" y="700" name="top"/>
  <outline>
    <contour>
      <point x="160" y="0" type="line"/>
      <point x="209" y="0" type="line"/>
      <point x="511" y="626" type="line"/>
      <point x="546" y="0" type="line"/>
      <point x="595" y="0" type="line"/>
      <point x="911" y="700" type="line"/>
      <point x="859" y="700" type="line"/>
      <point x="586" y="88" type="line"/>
      <point x="551" y="700" type="line"/>
      <point x="500" y="700" type="line"/>
      <point x="207" y="93" type="line"/>
      <point x="192" y="700" type="line"/>
      <point x="142" y="700" type="line"/>
    </contour>
  </outline>
</glyph>
<glyph name="asciicircum" format="2">
  <advance width="600"/>
  <unicode hex="005E"/>
  <outline>
    <contour>
      <point x="146" y="350" type="line"/>
      <point x="199" y="350" type="line"/>
      <point x="413" y="646" type="line"/>
      <point x="500" y="350" type="line"/>
      <point x="546" y="350" type="line"/>
      <point x="444" y="700" type="line"/>
      <point x="399" y="700" type="line"/>
    </contour>
  </outline>
</glyph>
<glyph name="grave" format="2">
  <advance width="600"/>
  <unicode hex="0060"/>
  <outline>
    <contour>
      <point x="362" y="579" type="line"/>
      <point x="410" y="579" type="line"/>
      <point x="307" y="695" type="line"/>
      <point x="232" y="695" type="line"/>
    </contour>
  </outline>
</glyph>
<glyph name="b" format="2">
  <advance width="555"/>
  <unicode hex="0062"/>
  <outline>
    <contour>
      <point x="253" y="-9" type="curve" smooth="yes"/>
      <point x="391" y="-9"/>
      <point x="503" y="117"/>
      <point x="503" y="268" type="curve" smooth="yes"/>
      <point x="503" y="394"/>
      <point x="420" y="485"/>
      <point x="308" y="485" type="curve" smooth="yes"/>
      <point x="255" y="485"/>
      <point x="207" y="467"/>
      <point x="166" y="427" type="curve"/>
      <point x="230" y="737" type="line"/>
      <point x="179" y="725" type="line"/>
      <point x="27" y="0" type="line"/>
      <point x="75" y="0" type="line"/>
      <point x="92" y="75" type="line"/>
      <point x="128" y="18"/>
      <point x="188" y="-9"/>
    </contour>
    <contour>
      <point x="248" y="36" type="curve" smooth="yes"/>
      <point x="185" y="36"/>
      <point x="127" y="72"/>
      <point x="103" y="123" type="curve"/>
      <point x="157" y="384" type="line"/>
      <point x="194" y="420"/>
      <point x="243" y="441"/>
      <point x="294" y="441" type="curve" smooth="yes"/>
      <point x="388" y="441"/>
      <point x="454" y="370"/>
      <point x="454" y="264" type="curve" smooth="yes"/>
      <point x="454" y="136"/>
      <point x="362" y="36"/>
    </contour>
  </outline>
</glyph>
<glyph name="g" format="2">
  <advance width="561"/>
  <unicode hex="0067"/>
  <note>
Version created Sun Jan 13 16:53:00 2019
</note>
  <anchor x="319" y="494" name="top"/>
  <outline>
    <contour>
      <point x="237" y="-219" type="curve" smooth="yes"/>
      <point x="334" y="-219"/>
      <point x="401" y="-162"/>
      <point x="423" y="-59" type="curve" smooth="yes"/>
      <point x="536" y="481" type="line"/>
      <point x="488" y="481" type="line"/>
      <point x="470" y="396" type="line"/>
      <point x="435" y="458"/>
      <point x="373" y="487"/>
      <point x="305" y="487" type="curve" smooth="yes"/>
      <point x="167" y="487"/>
      <point x="55" y="361"/>
      <point x="55" y="209" type="curve" smooth="yes"/>
      <point x="55" y="83"/>
      <point x="138" y="-8"/>
      <point x="250" y="-8" type="curve" smooth="yes"/>
      <point x="305" y="-8"/>
      <point x="354" y="11"/>
      <point x="396" y="53" type="curve"/>
      <point x="377" y="-47" type="line" smooth="yes"/>
      <point x="363" y="-124"/>
      <point x="307" y="-172"/>
      <point x="234" y="-172" type="curve" smooth="yes"/>
      <point x="173" y="-172"/>
      <point x="119" y="-152"/>
      <point x="62" y="-109" type="curve"/>
      <point x="31" y="-149" type="line"/>
      <point x="83" y="-193"/>
      <point x="167" y="-219"/>
    </contour>
    <contour>
      <point x="264" y="36" type="curve" smooth="yes"/>
      <point x="170" y="36"/>
      <point x="104" y="107"/>
      <point x="104" y="213" type="curve" smooth="yes"/>
      <point x="104" y="341"/>
      <point x="196" y="441"/>
      <point x="310" y="441" type="curve" smooth="yes"/>
      <point x="377" y="441"/>
      <point x="437" y="401"/>
      <point x="459" y="345" type="curve"/>
      <point x="406" y="98" type="line"/>
      <point x="368" y="59"/>
      <point x="317" y="36"/>
    </contour>
  </outline>
</glyph>
<glyph name="h" format="2">
  <advance width="525"/>
  <unicode hex="0068"/>
  <anchor x="198" y="700" name="top"/>
  <outline>
    <contour>
      <point x="27" y="0" type="line"/>
      <point x="76" y="0" type="line"/>
      <point x="152" y="363" type="line"/>
      <point x="191" y="416"/>
      <point x="245" y="445"/>
      <point x="302" y="445" type="curve" smooth="yes"/>
      <point x="389" y="445"/>
      <point x="435" y="381"/>
      <point x="413" y="282" type="curve" smooth="yes"/>
      <point x="351" y="0" type="line"/>
      <point x="400" y="0" type="line"/>
      <point x="463" y="290" type="line" smooth="yes"/>
      <point x="489" y="409"/>
      <point x="422" y="489"/>
      <point x="315" y="489" type="curve" smooth="yes"/>
      <point x="255" y="489"/>
      <point x="205" y="461"/>
      <point x="161" y="408" type="curve"/>
      <point x="230" y="737" type="line"/>
      <point x="179" y="725" type="line"/>
    </contour>
  </outline>
</glyph>
<glyph name="n" format="2">
  <advance width="525"/>
  <unicode hex="006E"/>
  <guideline x="361" y="0" angle="78.00000000000038" identifier="yPPhgl9m63"/>
  <anchor x="315" y="481" name="top"/>
  <anchor x="213" y="0" name="bottom"/>
  <outline>
    <contour>
      <point x="27" y="0" type="line"/>
      <point x="76" y="0" type="line"/>
      <point x="154" y="366" type="line"/>
      <point x="191" y="416"/>
      <point x="245" y="445"/>
      <point x="302" y="445" type="curve" smooth="yes"/>
      <point x="389" y="445"/>
      <point x="433" y="381"/>
      <point x="412" y="282" type="curve" smooth="yes"/>
      <point x="351" y="0" type="line"/>
      <point x="400" y="0" type="line"/>
      <point x="462" y="290" type="line" smooth="yes"/>
      <point x="487" y="409"/>
      <point x="422" y="489"/>
      <point x="315" y="489" type="curve" smooth="yes"/>
      <point x="256" y="489"/>
      <point x="207" y="462"/>
      <point x="164" y="412" type="curve"/>
      <point x="179" y="481" type="line"/>
      <point x="130" y="481" type="line"/>
    </contour>
  </outline>
</glyph>
<glyph name="o" format="2">
  <advance width="560"/>
  <unicode hex="006F"/>
  <guideline x="544" y="264" angle="0.0" identifier="IEdGOdfLl3"/>
  <anchor x="313" y="481" name="top"/>
  <outline>
    <contour>
      <point x="246" y="-11" type="curve" smooth="yes"/>
      <point x="400" y="-11"/>
      <point x="506" y="136"/>
      <point x="506" y="278" type="curve" smooth="yes"/>
      <point x="506" y="403"/>
      <point x="425" y="489"/>
      <point x="314" y="489" type="curve" smooth="yes"/>
      <point x="160" y="489"/>
      <point x="54" y="342"/>
      <point x="54" y="200" type="curve" smooth="yes"/>
      <point x="54" y="75"/>
      <point x="135" y="-11"/>
    </contour>
    <contour>
      <point x="248" y="35" type="curve" smooth="yes"/>
      <point x="161" y="35"/>
      <point x="103" y="101"/>
      <point x="103" y="199" type="curve" smooth="yes"/>
      <point x="103" y="336"/>
      <point x="203" y="443"/>
      <point x="312" y="443" type="curve" smooth="yes"/>
      <point x="399" y="443"/>
      <point x="457" y="377"/>
      <point x="457" y="279" type="curve" smooth="yes"/>
      <point x="457" y="142"/>
      <point x="357" y="35"/>
    </contour>
  </outline>
</glyph>
<glyph name="q" format="2">
  <advance width="555"/>
  <unicode hex="0071"/>
  <outline>
    <contour>
      <point x="334" y="-209" type="line"/>
      <point x="383" y="-209" type="line"/>
      <point x="531" y="481" type="line"/>
      <point x="482" y="481" type="line"/>
      <point x="465" y="404" type="line"/>
      <point x="428" y="461"/>
      <point x="369" y="487"/>
      <point x="305" y="487" type="curve" smooth="yes"/>
      <point x="167" y="487"/>
      <point x="55" y="361"/>
      <point x="55" y="209" type="curve" smooth="yes"/>
      <point x="55" y="83"/>
      <point x="138" y="-8"/>
      <point x="250" y="-8" type="curve" smooth="yes"/>
      <point x="302" y="-8"/>
      <point x="348" y="9"/>
      <point x="388" y="46" type="curve"/>
    </contour>
    <contour>
      <point x="264" y="36" type="curve" smooth="yes"/>
      <point x="170" y="36"/>
      <point x="104" y="107"/>
      <point x="104" y="213" type="curve" smooth="yes"/>
      <point x="104" y="341"/>
      <point x="196" y="441"/>
      <point x="310" y="441" type="curve" smooth="yes"/>
      <point x="373" y="441"/>
      <point x="429" y="406"/>
      <point x="454" y="355" type="curve"/>
      <point x="398" y="90" type="line"/>
      <point x="361" y="56"/>
      <point x="313" y="36"/>
    </contour>
  </outline>
</glyph>
<glyph name="r" format="2">
  <advance width="320"/>
  <unicode hex="0072"/>
  <guideline x="197" y="0" angle="78.00000000000038" identifier="UENvCM4o4i"/>
  <anchor x="230" y="481" name="top"/>
  <anchor x="49" y="0" name="bottom"/>
  <outline>
    <contour>
      <point x="25" y="0" type="line"/>
      <point x="74" y="0" type="line"/>
      <point x="149" y="345" type="line"/>
      <point x="187" y="409"/>
      <point x="238" y="445"/>
      <point x="293" y="445" type="curve" smooth="yes"/>
      <point x="309" y="445"/>
      <point x="326" y="442"/>
      <point x="344" y="436" type="curve"/>
      <point x="354" y="482" type="line"/>
      <point x="343" y="486"/>
      <point x="322" y="489"/>
      <point x="305" y="489" type="curve" smooth="yes"/>
      <point x="248" y="489"/>
      <point x="197" y="456"/>
      <point x="161" y="398" type="curve"/>
      <point x="179" y="481" type="line"/>
      <point x="130" y="481" type="line"/>
    </contour>
  </outline>
</glyph>
<glyph name="s" format="2">
  <advance width="427"/>
  <unicode hex="0073"/>
  <note>
Version created Fri Aug  3 17:49:29 2018
</note>
  <anchor x="227" y="481" name="top"/>
  <anchor x="190" y="0" name="bottom"/>
  <outline>
    <contour>
      <point x="194" y="-10" type="curve" smooth="yes"/>
      <point x="299" y="-10"/>
      <point x="374" y="54"/>
      <point x="374" y="140" type="curve" smooth="yes"/>
      <point x="374" y="199"/>
      <point x="339" y="232"/>
      <point x="257" y="257" type="curve" smooth="yes"/>
      <point x="186" y="278" type="line" smooth="yes"/>
      <point x="134" y="293"/>
      <point x="113" y="316"/>
      <point x="113" y="357" type="curve" smooth="yes"/>
      <point x="113" y="408"/>
      <point x="159" y="445"/>
      <point x="227" y="445" type="curve" smooth="yes"/>
      <point x="275" y="445"/>
      <point x="322" y="426"/>
      <point x="380" y="380" type="curve"/>
      <point x="410" y="416" type="line"/>
      <point x="354" y="463"/>
      <point x="291" y="489"/>
      <point x="228" y="489" type="curve" smooth="yes"/>
      <point x="133" y="489"/>
      <point x="66" y="433"/>
      <point x="66" y="355" type="curve" smooth="yes"/>
      <point x="66" y="292"/>
      <point x="101" y="254"/>
      <point x="174" y="233" type="curve" smooth="yes"/>
      <point x="244" y="213" type="line" smooth="yes"/>
      <point x="304" y="196"/>
      <point x="327" y="175"/>
      <point x="327" y="136" type="curve" smooth="yes"/>
      <point x="327" y="79"/>
      <point x="270" y="34"/>
      <point x="195" y="34" type="curve" smooth="yes"/>
      <point x="142" y="34"/>
      <point x="96" y="53"/>
      <point x="42" y="102" type="curve"/>
      <point x="9" y="70" type="line"/>
      <point x="59" y="17"/>
      <point x="124" y="-10"/>
    </contour>
  </outline>
</glyph>
<glyph name="t" format="2">
  <advance width="345"/>
  <unicode hex="0074"/>
  <anchor x="186" y="0" name="bottom"/>
  <outline>
    <contour>
      <point x="200" y="-10" type="curve" smooth="yes"/>
      <point x="221" y="-10"/>
      <point x="241" y="-7"/>
      <point x="263" y="0" type="curve"/>
      <point x="273" y="46" type="line"/>
      <point x="249" y="39"/>
      <point x="235" y="36"/>
      <point x="218" y="36" type="curve" smooth="yes"/>
      <point x="155" y="36"/>
      <point x="138" y="59"/>
      <point x="150" y="117" type="curve" smooth="yes"/>
      <point x="218" y="438" type="line"/>
      <point x="357" y="438" type="line"/>
      <point x="366" y="481" type="line"/>
      <point x="227" y="481" type="line"/>
      <point x="258" y="625" type="line"/>
      <point x="206" y="612" type="line"/>
      <point x="178" y="481" type="line"/>
      <point x="80" y="481" type="line"/>
      <point x="71" y="438" type="line"/>
      <point x="169" y="438" type="line"/>
      <point x="100" y="114" type="line" smooth="yes"/>
      <point x="85" y="42"/>
      <point x="118" y="-10"/>
    </contour>
  </outline>
</glyph>
<glyph name="v" format="2">
  <advance width="467"/>
  <unicode hex="0076"/>
  <outline>
    <contour>
      <point x="154" y="0" type="line"/>
      <point x="200" y="0" type="line"/>
      <point x="501" y="481" type="line"/>
      <point x="444" y="481" type="line"/>
      <point x="192" y="67" type="line"/>
      <point x="118" y="481" type="line"/>
      <point x="68" y="481" type="line"/>
    </contour>
  </outline>
</glyph>
<glyph name="w" format="2">
  <advance width="662"/>
  <unicode hex="0077"/>
  <anchor x="377" y="481" name="top"/>
  <outline>
    <contour>
      <point x="107" y="0" type="line"/>
      <point x="156" y="0" type="line"/>
      <point x="368" y="414" type="line"/>
      <point x="400" y="0" type="line"/>
      <point x="448" y="0" type="line"/>
      <point x="682" y="481" type="line"/>
      <point x="632" y="481" type="line"/>
      <point x="436" y="70" type="line"/>
      <point x="403" y="481" type="line"/>
      <point x="357" y="481" type="line"/>
      <point x="147" y="72" type="line"/>
      <point x="128" y="481" type="line"/>
      <point x="81" y="481" type="line"/>
    </contour>
  </outline>
</glyph>
<glyph name="x" format="2">
  <advance width="451"/>
  <unicode hex="0078"/>
  <outline>
    <contour>
      <point x="-37" y="0" type="line"/>
      <point x="24" y="0" type="line"/>
      <point x="224" y="213" type="line"/>
      <point x="331" y="0" type="line"/>
      <point x="386" y="0" type="line"/>
      <point x="259" y="246" type="line"/>
      <point x="482" y="481" type="line"/>
      <point x="421" y="481" type="line"/>
      <point x="238" y="287" type="line"/>
      <point x="140" y="481" type="line"/>
      <point x="85" y="481" type="line"/>
      <point x="204" y="254" type="line"/>
    </contour>
  </outline>
</glyph>
<glyph name="z" format="2">
  <advance width="436"/>
  <unicode hex="007A"/>
  <anchor x="258" y="481" name="top"/>
  <outline>
    <contour>
      <point x="-10" y="0" type="line"/>
      <point x="340" y="0" type="line"/>
      <point x="350" y="46" type="line"/>
      <point x="65" y="46" type="line"/>
      <point x="434" y="438" type="line"/>
      <point x="443" y="481" type="line"/>
      <point x="98" y="481" type="line"/>
      <point x="88" y="435" type="line"/>
      <point x="368" y="435" type="line"/>
      <point x="-1" y="43" type="line"/>
    </contour>
  </outline>
</glyph>
<glyph name="braceleft" format="2">
  <advance width="370"/>
  <unicode hex="007B"/>
  <outline>
    <contour>
      <point x="168" y="-219" type="curve" smooth="yes"/>
      <point x="187" y="-219"/>
      <point x="204" y="-215"/>
      <point x="224" y="-210" type="curve"/>
      <point x="221" y="-167" type="line"/>
      <point x="204" y="-172"/>
      <point x="190" y="-175"/>
      <point x="174" y="-175" type="curve" smooth="yes"/>
      <point x="98" y="-175"/>
      <point x="82" y="-116"/>
      <point x="127" y="-41" type="curve" smooth="yes"/>
      <point x="202" y="83" type="line" smooth="yes"/>
      <point x="248" y="159"/>
      <point x="221" y="219"/>
      <point x="170" y="243" type="curve"/>
      <point x="230" y="259"/>
      <point x="282" y="315"/>
      <point x="270" y="399" type="curve" smooth="yes"/>
      <point x="250" y="541" type="line" smooth="yes"/>
      <point x="238" y="628"/>
      <point x="282" y="666"/>
      <point x="333" y="666" type="curve" smooth="yes"/>
      <point x="354" y="666"/>
      <point x="375" y="660"/>
      <point x="394" y="651" type="curve"/>
      <point x="415" y="691" type="line"/>
      <point x="391" y="703"/>
      <point x="362" y="711"/>
      <point x="336" y="711" type="curve" smooth="yes"/>
      <point x="241" y="711"/>
      <point x="185" y="630"/>
      <point x="203" y="523" type="curve" smooth="yes"/>
      <point x="222" y="407" type="line" smooth="yes"/>
      <point x="236" y="323"/>
      <point x="192" y="269"/>
      <point x="123" y="269" type="curve" smooth="yes"/>
      <point x="50" y="269" type="line"/>
      <point x="41" y="222" type="line"/>
      <point x="113" y="222" type="line" smooth="yes"/>
      <point x="182" y="222"/>
      <point x="200" y="157"/>
      <point x="153" y="83" type="curve" smooth="yes"/>
      <point x="90" y="-16" type="line" smooth="yes"/>
      <point x="25" y="-118"/>
      <point x="45" y="-219"/>
    </contour>
  </outline>
</glyph>
<glyph name="braceright" format="2">
  <advance width="370"/>
  <unicode hex="007D"/>
  <outline>
    <contour>
      <point x="197" y="705" type="curve" smooth="yes"/>
      <point x="178" y="705"/>
      <point x="161" y="701"/>
      <point x="141" y="696" type="curve"/>
      <point x="144" y="653" type="line"/>
      <point x="161" y="658"/>
      <point x="175" y="661"/>
      <point x="191" y="661" type="curve" smooth="yes"/>
      <point x="267" y="661"/>
      <point x="283" y="602"/>
      <point x="238" y="527" type="curve" smooth="yes"/>
      <point x="163" y="403" type="line" smooth="yes"/>
      <point x="117" y="327"/>
      <point x="144" y="267"/>
      <point x="195" y="243" type="curve"/>
      <point x="195" y="243" type="line"/>
      <point x="135" y="227"/>
      <point x="83" y="171"/>
      <point x="95" y="87" type="curve" smooth="yes"/>
      <point x="115" y="-55" type="line" smooth="yes"/>
      <point x="127" y="-142"/>
      <point x="83" y="-180"/>
      <point x="32" y="-180" type="curve" smooth="yes"/>
      <point x="11" y="-180"/>
      <point x="-10" y="-174"/>
      <point x="-29" y="-165" type="curve"/>
      <point x="-50" y="-205" type="line"/>
      <point x="-26" y="-217"/>
      <point x="3" y="-225"/>
      <point x="29" y="-225" type="curve" smooth="yes"/>
      <point x="124" y="-225"/>
      <point x="180" y="-144"/>
      <point x="162" y="-37" type="curve" smooth="yes"/>
      <point x="143" y="79" type="line" smooth="yes"/>
      <point x="129" y="163"/>
      <point x="173" y="217"/>
      <point x="242" y="217" type="curve" smooth="yes"/>
      <point x="315" y="217" type="line"/>
      <point x="324" y="264" type="line"/>
      <point x="252" y="264" type="line" smooth="yes"/>
      <point x="183" y="264"/>
      <point x="165" y="329"/>
      <point x="212" y="403" type="curve" smooth="yes"/>
      <point x="275" y="502" type="line" smooth="yes"/>
      <point x="340" y="604"/>
      <point x="320" y="705"/>
    </contour>
  </outline>
</glyph>
<glyph name="asciitilde" format="2">
  <advance width="600"/>
  <unicode hex="007E"/>
  <outline>
    <contour>
      <point x="152" y="307" type="line"/>
      <point x="168" y="371"/>
      <point x="201" y="402"/>
      <point x="241" y="402" type="curve" smooth="yes"/>
      <point x="258" y="402"/>
      <point x="279" y="397"/>
      <point x="310" y="378" type="curve" smooth="yes"/>
      <point x="373" y="339" type="line" smooth="yes"/>
      <point x="406" y="319"/>
      <point x="437" y="310"/>
      <point x="462" y="310" type="curve" smooth="yes"/>
      <point x="524" y="310"/>
      <point x="578" y="359"/>
      <point x="594" y="446" type="curve"/>
      <point x="553" y="452" type="line"/>
      <point x="539" y="388"/>
      <point x="502" y="357"/>
      <point x="461" y="357" type="curve" smooth="yes"/>
      <point x="443" y="357"/>
      <point x="423" y="364"/>
      <point x="396" y="380" type="curve" smooth="yes"/>
      <point x="331" y="419" type="line" smooth="yes"/>
      <point x="296" y="440"/>
      <point x="269" y="449"/>
      <point x="245" y="449" type="curve" smooth="yes"/>
      <point x="183" y="449"/>
      <point x="128" y="399"/>
      <point x="111" y="312" type="curve"/>
    </contour>
  </outline>
</glyph>
<glyph name="cent" format="2">
  <advance width="505"/>
  <unicode hex="00A2"/>
  <outline>
    <contour>
      <point x="181" y="-120" type="line"/>
      <point x="225" y="-120" type="line"/>
      <point x="249" y="-8" type="line"/>
      <point x="318" y="-8"/>
      <point x="377" y="12"/>
      <point x="429" y="53" type="curve"/>
      <point x="402" y="91" type="line"/>
      <point x="359" y="58"/>
      <point x="310" y="38"/>
      <point x="259" y="38" type="curve"/>
      <point x="344" y="442" type="line"/>
      <point x="388" y="433"/>
      <point x="423" y="406"/>
      <point x="450" y="368" type="curve"/>
      <point x="485" y="399" type="line"/>
      <point x="452" y="445"/>
      <point x="407" y="476"/>
      <point x="354" y="487" type="curve"/>
      <point x="379" y="605" type="line"/>
      <point x="335" y="605" type="line"/>
      <point x="311" y="492" type="line"/>
      <point x="169" y="492"/>
      <point x="54" y="362"/>
      <point x="54" y="203" type="curve" smooth="yes"/>
      <point x="54" y="98"/>
      <point x="118" y="20"/>
      <point x="206" y="-2" type="curve"/>
    </contour>
    <contour>
      <point x="216" y="45" type="line"/>
      <point x="152" y="64"/>
      <point x="103" y="122"/>
      <point x="103" y="202" type="curve" smooth="yes"/>
      <point x="103" y="332"/>
      <point x="192" y="441"/>
      <point x="301" y="446" type="curve"/>
    </contour>
  </outline>
</glyph>
<glyph name="dieresis" format="2">
  <advance width="600"/>
  <unicode hex="00A8"/>
  <outline>
    <contour>
      <point x="286" y="607" type="curve" smooth="yes"/>
      <point x="314" y="607"/>
      <point x="336" y="629"/>
      <point x="336" y="657" type="curve" smooth="yes"/>
      <point x="336" y="681"/>
      <point x="318" y="700"/>
      <point x="295" y="700" type="curve" smooth="yes"/>
      <point x="267" y="700"/>
      <point x="245" y="678"/>
      <point x="245" y="650" type="curve" smooth="yes"/>
      <point x="245" y="626"/>
      <point x="263" y="607"/>
    </contour>
    <contour>
      <point x="480" y="607" type="curve" smooth="yes"/>
      <point x="508" y="607"/>
      <point x="530" y="629"/>
      <point x="530" y="657" type="curve" smooth="yes"/>
      <point x="530" y="681"/>
      <point x="512" y="700"/>
      <point x="489" y="700" type="curve" smooth="yes"/>
      <point x="461" y="700"/>
      <point x="439" y="678"/>
      <point x="439" y="650" type="curve" smooth="yes"/>
      <point x="439" y="626"/>
      <point x="457" y="607"/>
    </contour>
  </outline>
</glyph>
<glyph name="ordfeminine" format="2">
  <advance width="389"/>
  <unicode hex="00AA"/>
  <outline>
    <contour>
      <point x="210" y="327" type="curve" smooth="yes"/>
      <point x="252" y="327"/>
      <point x="290" y="340"/>
      <point x="326" y="366" type="curve"/>
      <point x="318" y="331" type="line"/>
      <point x="361" y="331" type="line"/>
      <point x="413" y="576" type="line" smooth="yes"/>
      <point x="430" y="659"/>
      <point x="377" y="711"/>
      <point x="277" y="711" type="curve" smooth="yes"/>
      <point x="238" y="711"/>
      <point x="205" y="704"/>
      <point x="150" y="682" type="curve"/>
      <point x="163" y="645" type="line"/>
      <point x="211" y="665"/>
      <point x="240" y="672"/>
      <point x="275" y="672" type="curve" smooth="yes"/>
      <point x="350" y="672"/>
      <point x="384" y="636"/>
      <point x="370" y="571" type="curve" smooth="yes"/>
      <point x="356" y="507" type="line"/>
      <point x="322" y="536"/>
      <point x="282" y="550"/>
      <point x="234" y="550" type="curve" smooth="yes"/>
      <point x="141" y="550"/>
      <point x="78" y="502"/>
      <point x="78" y="430" type="curve" smooth="yes"/>
      <point x="78" y="369"/>
      <point x="132" y="327"/>
    </contour>
    <contour>
      <point x="219" y="363" type="curve" smooth="yes"/>
      <point x="158" y="363"/>
      <point x="121" y="389"/>
      <point x="121" y="432" type="curve" smooth="yes"/>
      <point x="121" y="483"/>
      <point x="164" y="516"/>
      <point x="232" y="516" type="curve" smooth="yes"/>
      <point x="279" y="516"/>
      <point x="320" y="501"/>
      <point x="349" y="473" type="curve"/>
      <point x="333" y="401" type="line"/>
      <point x="300" y="375"/>
      <point x="264" y="363"/>
    </contour>
  </outline>
</glyph>
<glyph name="threesuperior" format="2">
  <advance width="300"/>
  <unicode hex="00B3"/>
  <outline>
    <contour>
      <point x="185" y="345" type="curve" smooth="yes"/>
      <point x="261" y="345"/>
      <point x="315" y="387"/>
      <point x="315" y="443" type="curve" smooth="yes"/>
      <point x="315" y="482"/>
      <point x="287" y="513"/>
      <point x="245" y="524" type="curve"/>
      <point x="301" y="535"/>
      <point x="337" y="571"/>
      <point x="337" y="615" type="curve" smooth="yes"/>
      <point x="337" y="665"/>
      <point x="289" y="705"/>
      <point x="227" y="705" type="curve" smooth="yes"/>
      <point x="189" y="705"/>
      <point x="149" y="693"/>
      <point x="109" y="668" type="curve"/>
      <point x="127" y="637" type="line"/>
      <point x="170" y="661"/>
      <point x="198" y="670"/>
      <point x="225" y="670" type="curve" smooth="yes"/>
      <point x="268" y="670"/>
      <point x="298" y="645"/>
      <point x="298" y="610" type="curve" smooth="yes"/>
      <point x="298" y="571"/>
      <point x="257" y="541"/>
      <point x="202" y="541" type="curve" smooth="yes"/>
      <point x="175" y="541" type="line"/>
      <point x="169" y="510" type="line"/>
      <point x="197" y="510" type="line" smooth="yes"/>
      <point x="245" y="510"/>
      <point x="276" y="484"/>
      <point x="276" y="448" type="curve" smooth="yes"/>
      <point x="276" y="408"/>
      <point x="235" y="380"/>
      <point x="184" y="380" type="curve" smooth="yes"/>
      <point x="147" y="380"/>
      <point x="109" y="397"/>
      <point x="81" y="426" type="curve"/>
      <point x="57" y="397" type="line"/>
      <point x="91" y="361"/>
      <point x="131" y="345"/>
    </contour>
  </outline>
</glyph>
<glyph name="uni00B5" format="2">
  <advance width="530"/>
  <unicode hex="00B5"/>
  <outline>
    <contour>
      <point x="-16" y="-209" type="line"/>
      <point x="33" y="-209" type="line"/>
      <point x="89" y="56" type="line"/>
      <point x="115" y="16"/>
      <point x="160" y="-8"/>
      <point x="217" y="-8" type="curve" smooth="yes"/>
      <point x="275" y="-8"/>
      <point x="323" y="18"/>
      <point x="365" y="66" type="curve"/>
      <point x="351" y="0" type="line"/>
      <point x="400" y="0" type="line"/>
      <point x="503" y="481" type="line"/>
      <point x="454" y="481" type="line"/>
      <point x="375" y="111" type="line"/>
      <point x="336" y="63"/>
      <point x="285" y="36"/>
      <point x="230" y="36" type="curve" smooth="yes"/>
      <point x="147" y="36"/>
      <point x="97" y="95"/>
      <point x="116" y="184" type="curve" smooth="yes"/>
      <point x="179" y="481" type="line"/>
      <point x="130" y="481" type="line"/>
    </contour>
  </outline>
</glyph>
<glyph name="cedilla" format="2">
  <advance width="600"/>
  <unicode hex="00B8"/>
  <outline>
    <contour>
      <point x="206" y="-235" type="curve" smooth="yes"/>
      <point x="268" y="-235"/>
      <point x="316" y="-195"/>
      <point x="316" y="-138" type="curve" smooth="yes"/>
      <point x="316" y="-99"/>
      <point x="288" y="-72"/>
      <point x="235" y="-68" type="curve"/>
      <point x="265" y="0" type="line"/>
      <point x="232" y="0" type="line"/>
      <point x="189" y="-96" type="line"/>
      <point x="213" y="-96" type="line" smooth="yes"/>
      <point x="254" y="-96"/>
      <point x="281" y="-113"/>
      <point x="281" y="-144" type="curve" smooth="yes"/>
      <point x="281" y="-178"/>
      <point x="254" y="-204"/>
      <point x="204" y="-204" type="curve" smooth="yes"/>
      <point x="175" y="-204"/>
      <point x="152" y="-194"/>
      <point x="131" y="-171" type="curve"/>
      <point x="107" y="-195" type="line"/>
      <point x="125" y="-217"/>
      <point x="160" y="-235"/>
    </contour>
  </outline>
</glyph>
<glyph name="questiondown" format="2">
  <advance width="494"/>
  <unicode hex="00BF"/>
  <outline>
    <contour>
      <point x="311" y="500" type="curve" smooth="yes"/>
      <point x="281" y="500"/>
      <point x="256" y="477"/>
      <point x="256" y="448" type="curve" smooth="yes"/>
      <point x="256" y="425"/>
      <point x="273" y="407"/>
      <point x="295" y="407" type="curve" smooth="yes"/>
      <point x="325" y="407"/>
      <point x="350" y="430"/>
      <point x="350" y="459" type="curve" smooth="yes"/>
      <point x="350" y="482"/>
      <point x="333" y="500"/>
    </contour>
    <contour>
      <point x="294" y="291" type="curve"/>
      <point x="250" y="291" type="line"/>
      <point x="250" y="232"/>
      <point x="221" y="188"/>
      <point x="157" y="150" type="curve" smooth="yes"/>
      <point x="89" y="110" type="line" smooth="yes"/>
      <point x="8" y="61"/>
      <point x="-28" y="10"/>
      <point x="-28" y="-62" type="curve" smooth="yes"/>
      <point x="-28" y="-152"/>
      <point x="47" y="-219"/>
      <point x="153" y="-219" type="curve" smooth="yes"/>
      <point x="223" y="-219"/>
      <point x="296" y="-186"/>
      <point x="362" y="-127" type="curve"/>
      <point x="331" y="-87" type="line"/>
      <point x="275" y="-139"/>
      <point x="215" y="-171"/>
      <point x="155" y="-171" type="curve" smooth="yes"/>
      <point x="76" y="-171"/>
      <point x="21" y="-124"/>
      <point x="21" y="-61" type="curve"/>
      <point x="21" y="-10"/>
      <point x="54" y="40"/>
      <point x="113" y="75" type="curve" smooth="yes"/>
      <point x="175" y="111" type="line" smooth="yes"/>
      <point x="257" y="156"/>
      <point x="294" y="213"/>
    </contour>
  </outline>
</glyph>
<glyph name="AE" format="2">
  <advance width="881"/>
  <unicode hex="00C6"/>
  <outline>
    <contour>
      <point x="-40" y="0" type="line"/>
      <point x="17" y="0" type="line"/>
      <point x="155" y="234" type="line"/>
      <point x="472" y="234" type="line"/>
      <point x="510" y="0" type="line"/>
      <point x="786" y="0" type="line"/>
      <point x="796" y="47" type="line"/>
      <point x="552" y="47" type="line"/>
      <point x="505" y="330" type="line"/>
      <point x="728" y="330" type="line"/>
      <point x="738" y="377" type="line"/>
      <point x="498" y="377" type="line"/>
      <point x="452" y="653" type="line"/>
      <point x="921" y="653" type="line"/>
      <point x="931" y="700" type="line"/>
      <point x="377" y="700" type="line"/>
    </contour>
    <contour>
      <point x="179" y="276" type="line"/>
      <point x="404" y="658" type="line"/>
      <point x="466" y="276" type="line"/>
    </contour>
  </outline>
</glyph>
<glyph name="Thorn" format="2">
  <advance width="638"/>
  <unicode hex="00DE"/>
  <outline>
    <contour>
      <point x="39" y="0" type="line"/>
      <point x="90" y="0" type="line"/>
      <point x="122" y="149" type="line"/>
      <point x="370" y="149" type="line" smooth="yes"/>
      <point x="510" y="149"/>
      <point x="609" y="245"/>
      <point x="609" y="379" type="curve" smooth="yes"/>
      <point x="609" y="487"/>
      <point x="537" y="552"/>
      <point x="420" y="552" type="curve" smooth="yes"/>
      <point x="207" y="552" type="line"/>
      <point x="239" y="700" type="line"/>
      <point x="188" y="700" type="line"/>
    </contour>
    <contour>
      <point x="132" y="196" type="line"/>
      <point x="197" y="505" type="line"/>
      <point x="414" y="505" type="line" smooth="yes"/>
      <point x="504" y="505"/>
      <point x="558" y="457"/>
      <point x="558" y="377" type="curve" smooth="yes"/>
      <point x="558" y="270"/>
      <point x="481" y="196"/>
      <point x="370" y="196" type="curve" smooth="yes"/>
    </contour>
  </outline>
</glyph>
<glyph name="germandbls" format="2">
  <advance width="595"/>
  <unicode hex="00DF"/>
  <outline>
    <contour>
      <point x="365" y="-10" type="curve" smooth="yes"/>
      <point x="466" y="-10"/>
      <point x="541" y="50"/>
      <point x="541" y="132" type="curve" smooth="yes"/>
      <point x="541" y="195"/>
      <point x="512" y="233"/>
      <point x="441" y="264" type="curve" smooth="yes"/>
      <point x="378" y="291" type="line" smooth="yes"/>
      <point x="346" y="304"/>
      <point x="334" y="321"/>
      <point x="334" y="352" type="curve" smooth="yes"/>
      <point x="334" y="441"/>
      <point x="553" y="431"/>
      <point x="553" y="582" type="curve" smooth="yes"/>
      <point x="553" y="669"/>
      <point x="477" y="737"/>
      <point x="368" y="737" type="curve" smooth="yes"/>
      <point x="252" y="737"/>
      <point x="171" y="663"/>
      <point x="140" y="521" type="curve" smooth="yes"/>
      <point x="28" y="0" type="line"/>
      <point x="77" y="0" type="line"/>
      <point x="188" y="516" type="line" smooth="yes"/>
      <point x="214" y="635"/>
      <point x="276" y="691"/>
      <point x="371" y="691" type="curve" smooth="yes"/>
      <point x="449" y="691"/>
      <point x="506" y="643"/>
      <point x="506" y="586" type="curve" smooth="yes"/>
      <point x="506" y="455"/>
      <point x="287" y="482"/>
      <point x="287" y="346" type="curve" smooth="yes"/>
      <point x="287" y="302"/>
      <point x="311" y="269"/>
      <point x="354" y="250" type="curve" smooth="yes"/>
      <point x="418" y="223" type="line" smooth="yes"/>
      <point x="471" y="201"/>
      <point x="494" y="175"/>
      <point x="494" y="137" type="curve" smooth="yes"/>
      <point x="494" y="77"/>
      <point x="442" y="36"/>
      <point x="365" y="36" type="curve" smooth="yes"/>
      <point x="304" y="36"/>
      <point x="255" y="56"/>
      <point x="230" y="92" type="curve"/>
      <point x="192" y="66" type="line"/>
      <point x="226" y="18"/>
      <point x="290" y="-10"/>
    </contour>
  </outline>
</glyph>
<glyph name="ccedilla" format="2">
  <advance width="489"/>
  <unicode hex="00E7"/>
  <outline>
    <contour>
      <point x="201" y="-235" type="curve" smooth="yes"/>
      <point x="263" y="-235"/>
      <point x="311" y="-195"/>
      <point x="311" y="-138" type="curve" smooth="yes"/>
      <point x="311" y="-99"/>
      <point x="283" y="-72"/>
      <point x="230" y="-68" type="curve"/>
      <point x="255" y="-11" type="line"/>
      <point x="318" y="-11"/>
      <point x="378" y="10"/>
      <point x="429" y="50" type="curve"/>
      <point x="402" y="88" type="line"/>
      <point x="359" y="55"/>
      <point x="310" y="35"/>
      <point x="263" y="35" type="curve" smooth="yes"/>
      <point x="177" y="35"/>
      <point x="103" y="101"/>
      <point x="103" y="199" type="curve" smooth="yes"/>
      <point x="103" y="332"/>
      <point x="196" y="443"/>
      <point x="308" y="443" type="curve" smooth="yes"/>
      <point x="368" y="443"/>
      <point x="416" y="413"/>
      <point x="450" y="365" type="curve"/>
      <point x="485" y="396" type="line"/>
      <point x="443" y="454"/>
      <point x="381" y="489"/>
      <point x="309" y="489" type="curve" smooth="yes"/>
      <point x="170" y="489"/>
      <point x="54" y="358"/>
      <point x="54" y="200" type="curve" smooth="yes"/>
      <point x="54" y="88"/>
      <point x="127" y="7"/>
      <point x="223" y="-8" type="curve"/>
      <point x="184" y="-96" type="line"/>
      <point x="208" y="-96" type="line" smooth="yes"/>
      <point x="249" y="-96"/>
      <point x="276" y="-113"/>
      <point x="276" y="-144" type="curve" smooth="yes"/>
      <point x="276" y="-178"/>
      <point x="249" y="-204"/>
      <point x="199" y="-204" type="curve" smooth="yes"/>
      <point x="170" y="-204"/>
      <point x="147" y="-194"/>
      <point x="126" y="-171" type="curve"/>
      <point x="102" y="-195" type="line"/>
      <point x="120" y="-217"/>
      <point x="155" y="-235"/>
    </contour>
  </outline>
</glyph>
<glyph name="oslash" format="2">
  <advance width="559"/>
  <unicode hex="00F8"/>
  <outline>
    <contour>
      <point x="246" y="-11" type="curve" smooth="yes"/>
      <point x="400" y="-11"/>
      <point x="506" y="136"/>
      <point x="506" y="278" type="curve" smooth="yes"/>
      <point x="506" y="326"/>
      <point x="494" y="368"/>
      <point x="474" y="401" type="curve"/>
      <point x="555" y="481" type="line"/>
      <point x="496" y="481" type="line"/>
      <point x="448" y="434" type="line"/>
      <point x="414" y="469"/>
      <point x="368" y="489"/>
      <point x="314" y="489" type="curve" smooth="yes"/>
      <point x="160" y="489"/>
      <point x="54" y="342"/>
      <point x="54" y="200" type="curve" smooth="yes"/>
      <point x="54" y="154"/>
      <point x="65" y="112"/>
      <point x="85" y="79" type="curve"/>
      <point x="4" y="0" type="line"/>
      <point x="63" y="0" type="line"/>
      <point x="110" y="46" type="line"/>
      <point x="144" y="10"/>
      <point x="191" y="-11"/>
    </contour>
    <contour>
      <point x="121" y="114" type="line"/>
      <point x="109" y="138"/>
      <point x="103" y="167"/>
      <point x="103" y="199" type="curve" smooth="yes"/>
      <point x="103" y="336"/>
      <point x="203" y="443"/>
      <point x="312" y="443" type="curve" smooth="yes"/>
      <point x="354" y="443"/>
      <point x="389" y="428"/>
      <point x="414" y="401" type="curve"/>
    </contour>
    <contour>
      <point x="248" y="35" type="curve" smooth="yes"/>
      <point x="205" y="35"/>
      <point x="169" y="51"/>
      <point x="144" y="79" type="curve"/>
      <point x="438" y="367" type="line"/>
      <point x="450" y="342"/>
      <point x="457" y="312"/>
      <point x="457" y="279" type="curve" smooth="yes"/>
      <point x="457" y="142"/>
      <point x="357" y="35"/>
    </contour>
  </outline>
</glyph>
<glyph name="Aogonek" format="2">
  <advance width="626"/>
  <unicode hex="0104"/>
  <outline>
    <contour>
      <point x="484" y="-232" type="curve" smooth="yes"/>
      <point x="505" y="-232"/>
      <point x="526" y="-227"/>
      <point x="541" y="-220" type="curve"/>
      <point x="538" y="-188" type="line"/>
      <point x="525" y="-193"/>
      <point x="506" y="-197"/>
      <point x="492" y="-197" type="curve" smooth="yes"/>
      <point x="454" y="-197"/>
      <point x="427" y="-176"/>
      <point x="427" y="-146" type="curve" smooth="yes"/>
      <point x="427" y="-102"/>
      <point x="458" y="-56"/>
      <point x="564" y="0" type="curve"/>
      <point x="441" y="700" type="line"/>
      <point x="377" y="700" type="line"/>
      <point x="-40" y="0" type="line"/>
      <point x="18" y="0" type="line"/>
      <point x="156" y="234" type="line"/>
      <point x="473" y="234" type="line"/>
      <point x="513" y="0" type="line"/>
      <point x="514" y="0" type="line"/>
      <point x="429" y="-47"/>
      <point x="387" y="-98"/>
      <point x="387" y="-154" type="curve" smooth="yes"/>
      <point x="387" y="-195"/>
      <point x="419" y="-232"/>
    </contour>
    <contour>
      <point x="180" y="276" type="line"/>
      <point x="402" y="653" type="line"/>
      <point x="466" y="276" type="line"/>
    </contour>
  </outline>
</glyph>
<glyph name="aogonek" format="2">
  <advance width="502"/>
  <unicode hex="0105"/>
  <outline>
    <contour>
      <point x="300" y="-232" type="curve" smooth="yes"/>
      <point x="321" y="-232"/>
      <point x="342" y="-227"/>
      <point x="357" y="-220" type="curve"/>
      <point x="354" y="-188" type="line"/>
      <point x="341" y="-193"/>
      <point x="322" y="-197"/>
      <point x="308" y="-197" type="curve" smooth="yes"/>
      <point x="270" y="-197"/>
      <point x="243" y="-176"/>
      <point x="243" y="-146" type="curve" smooth="yes"/>
      <point x="243" y="-102"/>
      <point x="274" y="-56"/>
      <point x="380" y="0" type="curve"/>
      <point x="448" y="305" type="line" smooth="yes"/>
      <point x="476" y="429"/>
      <point x="402" y="489"/>
      <point x="287" y="489" type="curve" smooth="yes"/>
      <point x="237" y="489"/>
      <point x="186" y="477"/>
      <point x="123" y="448" type="curve"/>
      <point x="141" y="408" type="line"/>
      <point x="199" y="434"/>
      <point x="243" y="447"/>
      <point x="284" y="447" type="curve" smooth="yes"/>
      <point x="388" y="447"/>
      <point x="419" y="392"/>
      <point x="398" y="296" type="curve" smooth="yes"/>
      <point x="383" y="228" type="line"/>
      <point x="344" y="264"/>
      <point x="283" y="282"/>
      <point x="215" y="282" type="curve" smooth="yes"/>
      <point x="110" y="282"/>
      <point x="35" y="219"/>
      <point x="35" y="130" type="curve" smooth="yes"/>
      <point x="35" y="47"/>
      <point x="101" y="-10"/>
      <point x="197" y="-10" type="curve" smooth="yes"/>
      <point x="250" y="-10"/>
      <point x="298" y="10"/>
      <point x="342" y="46" type="curve"/>
      <point x="332" y="0" type="line"/>
      <point x="333" y="0" type="line"/>
      <point x="246" y="-46"/>
      <point x="203" y="-97"/>
      <point x="203" y="-154" type="curve" smooth="yes"/>
      <point x="203" y="-195"/>
      <point x="235" y="-232"/>
    </contour>
    <contour>
      <point x="206" y="32" type="curve" smooth="yes"/>
      <point x="123" y="32"/>
      <point x="82" y="74"/>
      <point x="82" y="135" type="curve" smooth="yes"/>
      <point x="82" y="195"/>
      <point x="141" y="240"/>
      <point x="219" y="240" type="curve" smooth="yes"/>
      <point x="288" y="240"/>
      <point x="335" y="224"/>
      <point x="374" y="189" type="curve"/>
      <point x="352" y="91" type="line"/>
      <point x="308" y="53"/>
      <point x="262" y="32"/>
    </contour>
  </outline>
</glyph>
<glyph name="dcroat" format="2">
  <advance width="555"/>
  <unicode hex="0111"/>
  <outline>
    <contour>
      <point x="250" y="-8" type="curve" smooth="yes"/>
      <point x="301" y="-8"/>
      <point x="347" y="9"/>
      <point x="387" y="45" type="curve"/>
      <point x="377" y="0" type="line"/>
      <point x="426" y="0" type="line"/>
      <point x="546" y="576" type="line"/>
      <point x="630" y="576" type="line"/>
      <point x="638" y="616" type="line"/>
      <point x="555" y="616" type="line"/>
      <point x="580" y="737" type="line"/>
      <point x="529" y="725" type="line"/>
      <point x="506" y="616" type="line"/>
      <point x="352" y="616" type="line"/>
      <point x="344" y="576" type="line"/>
      <point x="498" y="576" type="line"/>
      <point x="463" y="407" type="line"/>
      <point x="426" y="462"/>
      <point x="368" y="487"/>
      <point x="305" y="487" type="curve" smooth="yes"/>
      <point x="167" y="487"/>
      <point x="55" y="361"/>
      <point x="55" y="209" type="curve" smooth="yes"/>
      <point x="55" y="83"/>
      <point x="138" y="-8"/>
    </contour>
    <contour>
      <point x="264" y="36" type="curve" smooth="yes"/>
      <point x="170" y="36"/>
      <point x="104" y="107"/>
      <point x="104" y="213" type="curve" smooth="yes"/>
      <point x="104" y="341"/>
      <point x="196" y="441"/>
      <point x="310" y="441" type="curve" smooth="yes"/>
      <point x="371" y="441"/>
      <point x="427" y="408"/>
      <point x="453" y="359" type="curve"/>
      <point x="396" y="88" type="line"/>
      <point x="360" y="55"/>
      <point x="313" y="36"/>
    </contour>
  </outline>
</glyph>
<glyph name="Eogonek" format="2">
  <advance width="594"/>
  <unicode hex="0118"/>
  <outline>
    <contour>
      <point x="419" y="-232" type="curve" smooth="yes"/>
      <point x="440" y="-232"/>
      <point x="461" y="-227"/>
      <point x="476" y="-220" type="curve"/>
      <point x="473" y="-188" type="line"/>
      <point x="460" y="-193"/>
      <point x="441" y="-197"/>
      <point x="427" y="-197" type="curve" smooth="yes"/>
      <point x="389" y="-197"/>
      <point x="362" y="-176"/>
      <point x="362" y="-146" type="curve" smooth="yes"/>
      <point x="362" y="-102"/>
      <point x="393" y="-56"/>
      <point x="499" y="0" type="curve"/>
      <point x="509" y="47" type="line"/>
      <point x="101" y="47" type="line"/>
      <point x="161" y="330" type="line"/>
      <point x="441" y="330" type="line"/>
      <point x="451" y="377" type="line"/>
      <point x="171" y="377" type="line"/>
      <point x="230" y="653" type="line"/>
      <point x="634" y="653" type="line"/>
      <point x="644" y="700" type="line"/>
      <point x="189" y="700" type="line"/>
      <point x="40" y="0" type="line"/>
      <point x="444" y="0" type="line"/>
      <point x="351" y="-55"/>
      <point x="322" y="-107"/>
      <point x="322" y="-154" type="curve" smooth="yes"/>
      <point x="322" y="-195"/>
      <point x="354" y="-232"/>
    </contour>
  </outline>
</glyph>
<glyph name="eogonek" format="2">
  <advance width="536"/>
  <unicode hex="0119"/>
  <outline>
    <contour>
      <point x="250" y="-232" type="curve" smooth="yes"/>
      <point x="271" y="-232"/>
      <point x="292" y="-227"/>
      <point x="307" y="-220" type="curve"/>
      <point x="304" y="-188" type="line"/>
      <point x="291" y="-193"/>
      <point x="272" y="-197"/>
      <point x="258" y="-197" type="curve" smooth="yes"/>
      <point x="220" y="-197"/>
      <point x="193" y="-176"/>
      <point x="193" y="-146" type="curve" smooth="yes"/>
      <point x="193" y="-102"/>
      <point x="224" y="-56"/>
      <point x="328" y="-1" type="curve"/>
      <point x="361" y="8"/>
      <point x="393" y="22"/>
      <point x="424" y="43" type="curve"/>
      <point x="398" y="81" type="line"/>
      <point x="352" y="51"/>
      <point x="304" y="36"/>
      <point x="261" y="36" type="curve" smooth="yes"/>
      <point x="159" y="36"/>
      <point x="92" y="122"/>
      <point x="106" y="231" type="curve"/>
      <point x="487" y="231" type="line"/>
      <point x="490" y="253"/>
      <point x="491" y="274"/>
      <point x="491" y="295" type="curve" smooth="yes"/>
      <point x="491" y="408"/>
      <point x="417" y="489"/>
      <point x="312" y="489" type="curve" smooth="yes"/>
      <point x="172" y="489"/>
      <point x="55" y="358"/>
      <point x="55" y="201" type="curve" smooth="yes"/>
      <point x="55" y="80"/>
      <point x="142" y="-10"/>
      <point x="259" y="-10" type="curve"/>
      <point x="178" y="-62"/>
      <point x="153" y="-110"/>
      <point x="153" y="-154" type="curve" smooth="yes"/>
      <point x="153" y="-195"/>
      <point x="185" y="-232"/>
    </contour>
    <contour>
      <point x="309" y="443" type="curve" smooth="yes"/>
      <point x="398" y="443"/>
      <point x="451" y="368"/>
      <point x="442" y="272" type="curve"/>
      <point x="114" y="272" type="line"/>
      <point x="141" y="371"/>
      <point x="221" y="443"/>
    </contour>
  </outline>
</glyph>
<glyph name="hcircumflex" format="2">
  <advance width="525"/>
  <unicode hex="0125"/>
  <outline>
    <contour>
      <point x="27" y="0" type="line"/>
      <point x="76" y="0" type="line"/>
      <point x="152" y="363" type="line"/>
      <point x="191" y="416"/>
      <point x="245" y="445"/>
      <point x="302" y="445" type="curve" smooth="yes"/>
      <point x="389" y="445"/>
      <point x="435" y="381"/>
      <point x="413" y="282" type="curve"/>
      <point x="351" y="0" type="line"/>
      <point x="400" y="0" type="line"/>
      <point x="463" y="290" type="line" smooth="yes"/>
      <point x="489" y="408"/>
      <point x="422" y="488"/>
      <point x="315" y="488" type="curve"/>
      <point x="255" y="488"/>
      <point x="204" y="460"/>
      <point x="161" y="408" type="curve"/>
      <point x="228" y="727" type="line"/>
      <point x="179" y="727" type="line"/>
    </contour>
    <component base="circumflex" xOffset="-162" yOffset="219"/>
  </outline>
</glyph>
<glyph name="iogonek" format="2">
  <advance width="204"/>
  <unicode hex="012F"/>
  <outline>
    <contour>
      <point x="184" y="607" type="curve" smooth="yes"/>
      <point x="212" y="607"/>
      <point x="234" y="629"/>
      <point x="234" y="657" type="curve" smooth="yes"/>
      <point x="234" y="681"/>
      <point x="216" y="700"/>
      <point x="193" y="700" type="curve" smooth="yes"/>
      <point x="165" y="700"/>
      <point x="143" y="678"/>
      <point x="143" y="650" type="curve" smooth="yes"/>
      <point x="143" y="626"/>
      <point x="161" y="607"/>
    </contour>
    <contour>
      <point x="-5" y="-232" type="curve" smooth="yes"/>
      <point x="16" y="-232"/>
      <point x="37" y="-227"/>
      <point x="52" y="-220" type="curve"/>
      <point x="49" y="-188" type="line"/>
      <point x="36" y="-193"/>
      <point x="17" y="-197"/>
      <point x="3" y="-197" type="curve" smooth="yes"/>
      <point x="-35" y="-197"/>
      <point x="-62" y="-176"/>
      <point x="-62" y="-146" type="curve" smooth="yes"/>
      <point x="-62" y="-102"/>
      <point x="-31" y="-56"/>
      <point x="75" y="0" type="curve"/>
      <point x="178" y="481" type="line"/>
      <point x="129" y="481" type="line"/>
      <point x="26" y="0" type="line"/>
      <point x="27" y="0" type="line"/>
      <point x="-58" y="-44"/>
      <point x="-102" y="-96"/>
      <point x="-102" y="-154" type="curve" smooth="yes"/>
      <point x="-102" y="-195"/>
      <point x="-70" y="-232"/>
    </contour>
  </outline>
</glyph>
<glyph name="dotlessi" format="2">
  <advance width="204"/>
  <unicode hex="0131"/>
  <guideline x="301" y="481" angle="78.00000000000038" identifier="eFta8QiX7F"/>
  <anchor x="153" y="481" name="top"/>
  <anchor x="75" y="0" name="bottom"/>
  <outline>
    <contour>
      <point x="26" y="0" type="line"/>
      <point x="75" y="0" type="line"/>
      <point x="178" y="481" type="line"/>
      <point x="129" y="481" type="line"/>
    </contour>
  </outline>
</glyph>
<glyph name="lacute" format="2">
  <advance width="204"/>
  <unicode hex="013A"/>
  <outline>
    <contour>
      <point x="27" y="0" type="line"/>
      <point x="76" y="0" type="line"/>
      <point x="228" y="727" type="line"/>
      <point x="179" y="727" type="line"/>
    </contour>
    <component base="acute" xOffset="-151" yOffset="199"/>
  </outline>
</glyph>
<glyph name="Lslash" format="2">
  <advance width="584"/>
  <unicode hex="0141"/>
  <outline>
    <contour>
      <point x="40" y="0" type="line"/>
      <point x="490" y="0" type="line"/>
      <point x="500" y="47" type="line"/>
      <point x="101" y="47" type="line"/>
      <point x="150" y="280" type="line"/>
      <point x="379" y="428" type="line"/>
      <point x="392" y="489" type="line"/>
      <point x="164" y="341" type="line"/>
      <point x="240" y="700" type="line"/>
      <point x="189" y="700" type="line"/>
      <point x="106" y="310" type="line"/>
      <point x="14" y="249" type="line"/>
      <point x="1" y="188" type="line"/>
      <point x="93" y="249" type="line"/>
    </contour>
  </outline>
</glyph>
<glyph name="lslash" format="2">
  <advance width="236"/>
  <unicode hex="0142"/>
  <outline>
    <contour>
      <point x="45" y="0" type="line"/>
      <point x="94" y="0" type="line"/>
      <point x="166" y="345" type="line"/>
      <point x="281" y="440" type="line"/>
      <point x="293" y="502" type="line"/>
      <point x="179" y="407" type="line"/>
      <point x="248" y="737" type="line"/>
      <point x="197" y="725" type="line"/>
      <point x="122" y="366" type="line"/>
      <point x="5" y="269" type="line"/>
      <point x="-8" y="207" type="line"/>
      <point x="109" y="305" type="line"/>
    </contour>
  </outline>
</glyph>
<glyph name="Eng" format="2">
  <advance width="712"/>
  <unicode hex="014A"/>
  <outline>
    <contour>
      <point x="425" y="-219" type="curve" smooth="yes"/>
      <point x="497" y="-219"/>
      <point x="531" y="-186"/>
      <point x="547" y="-110" type="curve" smooth="yes"/>
      <point x="719" y="700" type="line"/>
      <point x="671" y="700" type="line"/>
      <point x="539" y="73" type="line"/>
      <point x="246" y="700" type="line"/>
      <point x="189" y="700" type="line"/>
      <point x="40" y="0" type="line"/>
      <point x="88" y="0" type="line"/>
      <point x="222" y="639" type="line"/>
      <point x="522" y="0" type="line"/>
      <point x="500" y="-105" type="line" smooth="yes"/>
      <point x="490" y="-152"/>
      <point x="470" y="-173"/>
      <point x="431" y="-173" type="curve" smooth="yes"/>
      <point x="419" y="-173"/>
      <point x="406" y="-171"/>
      <point x="394" y="-166" type="curve"/>
      <point x="384" y="-213" type="line"/>
      <point x="396" y="-217"/>
      <point x="412" y="-219"/>
    </contour>
  </outline>
</glyph>
<glyph name="OE" format="2">
  <advance width="1034"/>
  <unicode hex="0152"/>
  <outline>
    <contour>
      <point x="370" y="0" type="curve" smooth="yes"/>
      <point x="939" y="0" type="line"/>
      <point x="949" y="47" type="line"/>
      <point x="528" y="47" type="line"/>
      <point x="629" y="103"/>
      <point x="705" y="207"/>
      <point x="724" y="330" type="curve"/>
      <point x="889" y="330" type="line"/>
      <point x="899" y="377" type="line"/>
      <point x="728" y="377" type="line"/>
      <point x="728" y="496"/>
      <point x="683" y="594"/>
      <point x="588" y="653" type="curve"/>
      <point x="1074" y="653" type="line"/>
      <point x="1084" y="700" type="line"/>
      <point x="437" y="700" type="line" smooth="yes"/>
      <point x="242" y="700"/>
      <point x="79" y="522"/>
      <point x="79" y="312" type="curve" smooth="yes"/>
      <point x="79" y="135"/>
      <point x="202" y="0"/>
    </contour>
    <contour>
      <point x="371" y="48" type="curve" smooth="yes"/>
      <point x="229" y="48"/>
      <point x="130" y="162"/>
      <point x="130" y="314" type="curve" smooth="yes"/>
      <point x="130" y="497"/>
      <point x="271" y="652"/>
      <point x="436" y="652" type="curve" smooth="yes"/>
      <point x="578" y="652"/>
      <point x="677" y="538"/>
      <point x="677" y="386" type="curve" smooth="yes"/>
      <point x="677" y="203"/>
      <point x="536" y="48"/>
    </contour>
  </outline>
</glyph>
<glyph name="oe" format="2">
  <advance width="933"/>
  <unicode hex="0153"/>
  <outline>
    <contour>
      <point x="246" y="-11" type="curve" smooth="yes"/>
      <point x="344" y="-11"/>
      <point x="422" y="50"/>
      <point x="465" y="131" type="curve"/>
      <point x="492" y="47"/>
      <point x="565" y="-10"/>
      <point x="657" y="-10" type="curve" smooth="yes"/>
      <point x="712" y="-10"/>
      <point x="768" y="8"/>
      <point x="821" y="43" type="curve"/>
      <point x="795" y="81" type="line"/>
      <point x="749" y="51"/>
      <point x="701" y="36"/>
      <point x="658" y="36" type="curve" smooth="yes"/>
      <point x="556" y="36"/>
      <point x="490" y="119"/>
      <point x="503" y="231" type="curve"/>
      <point x="884" y="231" type="line"/>
      <point x="887" y="253"/>
      <point x="888" y="274"/>
      <point x="888" y="295" type="curve" smooth="yes"/>
      <point x="888" y="408"/>
      <point x="814" y="489"/>
      <point x="709" y="489" type="curve" smooth="yes"/>
      <point x="619" y="489"/>
      <point x="538" y="433"/>
      <point x="493" y="351" type="curve"/>
      <point x="468" y="435"/>
      <point x="400" y="489"/>
      <point x="314" y="489" type="curve" smooth="yes"/>
      <point x="160" y="489"/>
      <point x="54" y="342"/>
      <point x="54" y="200" type="curve" smooth="yes"/>
      <point x="54" y="75"/>
      <point x="135" y="-11"/>
    </contour>
    <contour>
      <point x="248" y="35" type="curve" smooth="yes"/>
      <point x="161" y="35"/>
      <point x="103" y="101"/>
      <point x="103" y="199" type="curve" smooth="yes"/>
      <point x="103" y="336"/>
      <point x="203" y="443"/>
      <point x="312" y="443" type="curve" smooth="yes"/>
      <point x="399" y="443"/>
      <point x="457" y="377"/>
      <point x="457" y="279" type="curve" smooth="yes"/>
      <point x="457" y="142"/>
      <point x="357" y="35"/>
    </contour>
    <contour>
      <point x="706" y="443" type="curve" smooth="yes"/>
      <point x="795" y="443"/>
      <point x="848" y="368"/>
      <point x="839" y="272" type="curve"/>
      <point x="511" y="272" type="line"/>
      <point x="538" y="371"/>
      <point x="618" y="443"/>
    </contour>
  </outline>
</glyph>
<glyph name="Tbar" format="2">
  <advance width="592"/>
  <unicode hex="0166"/>
  <outline>
    <contour>
      <point x="219" y="0" type="line"/>
      <point x="270" y="0" type="line"/>
      <point x="340" y="329" type="line"/>
      <point x="499" y="329" type="line"/>
      <point x="508" y="373" type="line"/>
      <point x="349" y="373" type="line"/>
      <point x="409" y="653" type="line"/>
      <point x="649" y="653" type="line"/>
      <point x="659" y="700" type="line"/>
      <point x="128" y="700" type="line"/>
      <point x="118" y="653" type="line"/>
      <point x="358" y="653" type="line"/>
      <point x="298" y="373" type="line"/>
      <point x="139" y="373" type="line"/>
      <point x="130" y="329" type="line"/>
      <point x="289" y="329" type="line"/>
    </contour>
  </outline>
</glyph>
<glyph name="tbar" format="2">
  <advance width="350"/>
  <unicode hex="0167"/>
  <outline>
    <contour>
      <point x="200" y="-10" type="curve" smooth="yes"/>
      <point x="221" y="-10"/>
      <point x="241" y="-7"/>
      <point x="263" y="0" type="curve"/>
      <point x="273" y="46" type="line"/>
      <point x="249" y="39"/>
      <point x="235" y="36"/>
      <point x="218" y="36" type="curve" smooth="yes"/>
      <point x="155" y="36"/>
      <point x="138" y="59"/>
      <point x="150" y="117" type="curve" smooth="yes"/>
      <point x="180" y="258" type="line"/>
      <point x="324" y="258" type="line"/>
      <point x="332" y="298" type="line"/>
      <point x="188" y="298" type="line"/>
      <point x="218" y="438" type="line"/>
      <point x="357" y="438" type="line"/>
      <point x="366" y="481" type="line"/>
      <point x="227" y="481" type="line"/>
      <point x="258" y="625" type="line"/>
      <point x="206" y="612" type="line"/>
      <point x="178" y="481" type="line"/>
      <point x="80" y="481" type="line"/>
      <point x="71" y="438" type="line"/>
      <point x="169" y="438" type="line"/>
      <point x="139" y="298" type="line"/>
      <point x="46" y="298" type="line"/>
      <point x="38" y="258" type="line"/>
      <point x="131" y="258" type="line"/>
      <point x="100" y="114" type="line" smooth="yes"/>
      <point x="85" y="42"/>
      <point x="118" y="-10"/>
    </contour>
  </outline>
</glyph>
<glyph name="breve" format="2">
  <advance width="600"/>
  <unicode hex="02D8"/>
  <outline>
    <contour>
      <point x="377" y="573" type="curve" smooth="yes"/>
      <point x="449" y="573"/>
      <point x="507" y="619"/>
      <point x="538" y="692" type="curve"/>
      <point x="500" y="704" type="line"/>
      <point x="474" y="642"/>
      <point x="432" y="609"/>
      <point x="379" y="609" type="curve" smooth="yes"/>
      <point x="324" y="609"/>
      <point x="285" y="637"/>
      <point x="284" y="704" type="curve"/>
      <point x="246" y="698" type="line"/>
      <point x="248" y="619"/>
      <point x="303" y="573"/>
    </contour>
  </outline>
</glyph>
<glyph name="dotaccent" format="2">
  <advance width="600"/>
  <unicode hex="02D9"/>
  <guideline x="398" y="654" angle="90.0" identifier="U1JLGBQLuf"/>
  <guideline x="398" y="654" angle="0.0" identifier="24p1dHp2rB"/>
  <guideline x="395" y="642" angle="78.0" identifier="WSd1QCTmKi"/>
  <outline>
    <contour>
      <point x="393" y="607" type="curve" smooth="yes"/>
      <point x="421" y="607"/>
      <point x="443" y="629"/>
      <point x="443" y="657" type="curve" smooth="yes"/>
      <point x="443" y="681"/>
      <point x="425" y="700"/>
      <point x="402" y="700" type="curve" smooth="yes"/>
      <point x="374" y="700"/>
      <point x="352" y="678"/>
      <point x="352" y="650" type="curve" smooth="yes"/>
      <point x="352" y="626"/>
      <point x="370" y="607"/>
    </contour>
  </outline>
</glyph>
<glyph name="ring" format="2">
  <advance width="600"/>
  <unicode hex="02DA"/>
  <outline>
    <contour>
      <point x="382" y="568" type="curve" smooth="yes"/>
      <point x="445" y="568"/>
      <point x="498" y="625"/>
      <point x="498" y="688" type="curve" smooth="yes"/>
      <point x="498" y="744"/>
      <point x="459" y="783"/>
      <point x="402" y="783" type="curve" smooth="yes"/>
      <point x="339" y="783"/>
      <point x="286" y="726"/>
      <point x="286" y="663" type="curve" smooth="yes"/>
      <point x="286" y="607"/>
      <point x="325" y="568"/>
    </contour>
    <contour>
      <point x="383" y="602" type="curve" smooth="yes"/>
      <point x="350" y="602"/>
      <point x="321" y="626"/>
      <point x="321" y="665" type="curve" smooth="yes"/>
      <point x="321" y="710"/>
      <point x="357" y="749"/>
      <point x="401" y="749" type="curve" smooth="yes"/>
      <point x="434" y="749"/>
      <point x="463" y="725"/>
      <point x="463" y="686" type="curve" smooth="yes"/>
      <point x="463" y="641"/>
      <point x="427" y="602"/>
    </contour>
  </outline>
</glyph>
<glyph name="ogonek" format="2">
  <advance width="600"/>
  <unicode hex="02DB"/>
  <outline>
    <contour>
      <point x="220" y="-232" type="curve" smooth="yes"/>
      <point x="241" y="-232"/>
      <point x="262" y="-227"/>
      <point x="277" y="-220" type="curve"/>
      <point x="274" y="-188" type="line"/>
      <point x="261" y="-193"/>
      <point x="242" y="-197"/>
      <point x="228" y="-197" type="curve" smooth="yes"/>
      <point x="190" y="-197"/>
      <point x="163" y="-176"/>
      <point x="163" y="-146" type="curve" smooth="yes"/>
      <point x="163" y="-102"/>
      <point x="194" y="-56"/>
      <point x="300" y="0" type="curve"/>
      <point x="276" y="17" type="line"/>
      <point x="158" y="-45"/>
      <point x="123" y="-102"/>
      <point x="123" y="-154" type="curve" smooth="yes"/>
      <point x="123" y="-195"/>
      <point x="155" y="-232"/>
    </contour>
  </outline>
</glyph>
<glyph name="endash" format="2">
  <advance width="536"/>
  <unicode hex="2013"/>
  <outline>
    <contour>
      <point x="66" y="258" type="line"/>
      <point x="475" y="258" type="line"/>
      <point x="486" y="302" type="line"/>
      <point x="77" y="302" type="line"/>
    </contour>
  </outline>
</glyph>
<glyph name="emdash" format="2">
  <advance width="675"/>
  <unicode hex="2014"/>
  <outline>
    <contour>
      <point x="66" y="258" type="line"/>
      <point x="615" y="258" type="line"/>
      <point x="626" y="302" type="line"/>
      <point x="77" y="302" type="line"/>
    </contour>
  </outline>
</glyph>
<glyph name="uni2015" format="2">
  <advance width="908"/>
  <unicode hex="2015"/>
  <outline>
    <contour>
      <point x="66" y="258" type="line"/>
      <point x="847" y="258" type="line"/>
      <point x="858" y="302" type="line"/>
      <point x="77" y="302" type="line"/>
    </contour>
  </outline>
</glyph>
<glyph name="quotedblleft" format="2">
  <advance width="391"/>
  <unicode hex="201C"/>
  <outline>
    <contour>
      <point x="278" y="750" type="line"/>
      <point x="237" y="750" type="line"/>
      <point x="125" y="538" type="line"/>
      <point x="183" y="538" type="line"/>
    </contour>
    <contour>
      <point x="419" y="750" type="line"/>
      <point x="378" y="750" type="line"/>
      <point x="266" y="538" type="line"/>
      <point x="324" y="538" type="line"/>
    </contour>
  </outline>
</glyph>
<glyph name="dagger" format="2">
  <advance width="418"/>
  <unicode hex="2020"/>
  <outline>
    <contour>
      <point x="134" y="0" type="line"/>
      <point x="182" y="0" type="line"/>
      <point x="278" y="452" type="line"/>
      <point x="414" y="452" type="line"/>
      <point x="424" y="496" type="line"/>
      <point x="288" y="496" type="line"/>
      <point x="331" y="700" type="line"/>
      <point x="283" y="700" type="line"/>
      <point x="240" y="496" type="line"/>
      <point x="104" y="496" type="line"/>
      <point x="94" y="452" type="line"/>
      <point x="230" y="452" type="line"/>
    </contour>
  </outline>
</glyph>
<glyph name="bullet" format="2">
  <advance width="327"/>
  <unicode hex="2022"/>
  <outline>
    <contour>
      <point x="180" y="268" type="curve" smooth="yes"/>
      <point x="234" y="268"/>
      <point x="282" y="317"/>
      <point x="282" y="374" type="curve" smooth="yes"/>
      <point x="282" y="421"/>
      <point x="246" y="456"/>
      <point x="200" y="456" type="curve" smooth="yes"/>
      <point x="145" y="456"/>
      <point x="96" y="408"/>
      <point x="96" y="351" type="curve" smooth="yes"/>
      <point x="96" y="304"/>
      <point x="133" y="268"/>
    </contour>
  </outline>
</glyph>
<glyph name="guilsinglright" format="2">
  <advance width="379"/>
  <unicode hex="203A"/>
  <outline>
    <contour>
      <point x="175" y="481" type="line"/>
      <point x="122" y="481" type="line"/>
      <point x="284" y="245" type="line"/>
      <point x="19" y="0" type="line"/>
      <point x="82" y="0" type="line"/>
      <point x="344" y="240" type="line"/>
    </contour>
  </outline>
</glyph>
<glyph name="uni2080" format="2">
  <advance width="346"/>
  <unicode hex="2080"/>
  <outline>
    <contour>
      <point x="136" y="-5" type="curve" smooth="yes"/>
      <point x="228" y="-5"/>
      <point x="305" y="98"/>
      <point x="305" y="218" type="curve" smooth="yes"/>
      <point x="305" y="301"/>
      <point x="256" y="355"/>
      <point x="182" y="355" type="curve" smooth="yes"/>
      <point x="90" y="355"/>
      <point x="13" y="251"/>
      <point x="13" y="132" type="curve" smooth="yes"/>
      <point x="13" y="49"/>
      <point x="62" y="-5"/>
    </contour>
    <contour>
      <point x="141" y="31" type="curve" smooth="yes"/>
      <point x="89" y="31"/>
      <point x="53" y="69"/>
      <point x="53" y="132" type="curve" smooth="yes"/>
      <point x="53" y="232"/>
      <point x="113" y="319"/>
      <point x="178" y="319" type="curve" smooth="yes"/>
      <point x="230" y="319"/>
      <point x="265" y="281"/>
      <point x="265" y="218" type="curve" smooth="yes"/>
      <point x="265" y="118"/>
      <point x="206" y="31"/>
    </contour>
  </outline>
</glyph>
<glyph name="uni2081" format="2">
  <advance width="151"/>
  <unicode hex="2081"/>
  <outline>
    <contour>
      <point x="29" y="0" type="line"/>
      <point x="67" y="0" type="line"/>
      <point x="141" y="350" type="line"/>
      <point x="116" y="350" type="line"/>
      <point x="38" y="318" type="line"/>
      <point x="30" y="282" type="line"/>
      <point x="94" y="308" type="line"/>
    </contour>
  </outline>
</glyph>
<glyph name="uni2082" format="2">
  <advance width="280"/>
  <unicode hex="2082"/>
  <outline>
    <contour>
      <point x="-25" y="0" type="line"/>
      <point x="208" y="0" type="line"/>
      <point x="215" y="35" type="line"/>
      <point x="36" y="35" type="line"/>
      <point x="186" y="154" type="line" smooth="yes"/>
      <point x="236" y="194"/>
      <point x="257" y="225"/>
      <point x="257" y="268" type="curve" smooth="yes"/>
      <point x="257" y="319"/>
      <point x="211" y="355"/>
      <point x="152" y="355" type="curve" smooth="yes"/>
      <point x="113" y="355"/>
      <point x="74" y="340"/>
      <point x="31" y="311" type="curve"/>
      <point x="52" y="281" type="line"/>
      <point x="90" y="308"/>
      <point x="117" y="320"/>
      <point x="148" y="320" type="curve" smooth="yes"/>
      <point x="190" y="320"/>
      <point x="218" y="297"/>
      <point x="218" y="261" type="curve" smooth="yes"/>
      <point x="218" y="231"/>
      <point x="200" y="205"/>
      <point x="163" y="175" type="curve" smooth="yes"/>
      <point x="-19" y="30" type="line"/>
    </contour>
  </outline>
</glyph>
<glyph name="uni2084" format="2">
  <advance width="314"/>
  <unicode hex="2084"/>
  <outline>
    <contour>
      <point x="165" y="0" type="line"/>
      <point x="204" y="0" type="line"/>
      <point x="224" y="92" type="line"/>
      <point x="265" y="92" type="line"/>
      <point x="273" y="126" type="line"/>
      <point x="231" y="126" type="line"/>
      <point x="279" y="350" type="line"/>
      <point x="236" y="350" type="line"/>
      <point x="-4" y="123" type="line"/>
      <point x="-9" y="92" type="line"/>
      <point x="185" y="92" type="line"/>
    </contour>
    <contour>
      <point x="46" y="126" type="line"/>
      <point x="229" y="299" type="line"/>
      <point x="192" y="126" type="line"/>
    </contour>
  </outline>
</glyph>
<glyph name="uni2085" format="2">
  <advance width="292"/>
  <unicode hex="2085"/>
  <outline>
    <contour>
      <point x="105" y="-5" type="curve"/>
      <point x="181" y="-5"/>
      <point x="243" y="48"/>
      <point x="243" y="117" type="curve" smooth="yes"/>
      <point x="243" y="175"/>
      <point x="197" y="215"/>
      <point x="128" y="215" type="curve" smooth="yes"/>
      <point x="109" y="215"/>
      <point x="90" y="211"/>
      <point x="69" y="205" type="curve"/>
      <point x="96" y="315" type="line"/>
      <point x="268" y="315" type="line"/>
      <point x="276" y="350" type="line"/>
      <point x="69" y="350" type="line"/>
      <point x="28" y="183" type="line"/>
      <point x="49" y="173" type="line"/>
      <point x="71" y="181"/>
      <point x="93" y="184"/>
      <point x="120" y="184" type="curve" smooth="yes"/>
      <point x="174" y="184"/>
      <point x="204" y="160"/>
      <point x="204" y="115" type="curve" smooth="yes"/>
      <point x="204" y="67"/>
      <point x="161" y="30"/>
      <point x="106" y="30" type="curve"/>
      <point x="70" y="30"/>
      <point x="36" y="44"/>
      <point x="6" y="72" type="curve"/>
      <point x="-16" y="41" type="line"/>
      <point x="15" y="11"/>
      <point x="55" y="-5"/>
    </contour>
  </outline>
</glyph>
<glyph name="uni2087" format="2">
  <advance width="285"/>
  <unicode hex="2087"/>
  <outline>
    <contour>
      <point x="2" y="0" type="line"/>
      <point x="50" y="0" type="line"/>
      <point x="293" y="319" type="line"/>
      <point x="298" y="350" type="line"/>
      <point x="40" y="350" type="line"/>
      <point x="32" y="315" type="line"/>
      <point x="243" y="315" type="line"/>
    </contour>
  </outline>
</glyph>
<glyph name="uni2088" format="2">
  <advance width="318"/>
  <unicode hex="2088"/>
  <outline>
    <contour>
      <point x="122" y="-5" type="curve" smooth="yes"/>
      <point x="199" y="-5"/>
      <point x="260" y="43"/>
      <point x="260" y="103" type="curve" smooth="yes"/>
      <point x="260" y="138"/>
      <point x="237" y="166"/>
      <point x="199" y="180" type="curve"/>
      <point x="247" y="192"/>
      <point x="280" y="228"/>
      <point x="280" y="270" type="curve" smooth="yes"/>
      <point x="280" y="319"/>
      <point x="234" y="355"/>
      <point x="173" y="355" type="curve" smooth="yes"/>
      <point x="104" y="355"/>
      <point x="48" y="311"/>
      <point x="48" y="257" type="curve" smooth="yes"/>
      <point x="48" y="225"/>
      <point x="65" y="201"/>
      <point x="95" y="187" type="curve"/>
      <point x="40" y="176"/>
      <point x="0" y="134"/>
      <point x="0" y="87" type="curve" smooth="yes"/>
      <point x="0" y="34"/>
      <point x="50" y="-5"/>
    </contour>
    <contour>
      <point x="158" y="199" type="curve" smooth="yes"/>
      <point x="118" y="199"/>
      <point x="87" y="223"/>
      <point x="87" y="255" type="curve" smooth="yes"/>
      <point x="87" y="293"/>
      <point x="124" y="322"/>
      <point x="170" y="322" type="curve" smooth="yes"/>
      <point x="210" y="322"/>
      <point x="241" y="298"/>
      <point x="241" y="266" type="curve" smooth="yes"/>
      <point x="241" y="228"/>
      <point x="205" y="199"/>
    </contour>
    <contour>
      <point x="125" y="28" type="curve" smooth="yes"/>
      <point x="75" y="28"/>
      <point x="39" y="55"/>
      <point x="39" y="92" type="curve" smooth="yes"/>
      <point x="39" y="132"/>
      <point x="83" y="166"/>
      <point x="135" y="166" type="curve" smooth="yes"/>
      <point x="185" y="166"/>
      <point x="221" y="139"/>
      <point x="221" y="102" type="curve" smooth="yes"/>
      <point x="221" y="62"/>
      <point x="176" y="28"/>
    </contour>
  </outline>
</glyph>
<glyph name="uni2089" format="2">
  <advance width="317"/>
  <unicode hex="2089"/>
  <outline>
    <contour>
      <point x="163" y="355" type="curve" smooth="yes"/>
      <point x="90" y="355"/>
      <point x="30" y="298"/>
      <point x="30" y="230" type="curve" smooth="yes"/>
      <point x="30" y="174"/>
      <point x="74" y="134"/>
      <point x="133" y="134" type="curve" smooth="yes"/>
      <point x="173" y="134"/>
      <point x="212" y="149"/>
      <point x="239" y="173" type="curve"/>
      <point x="221" y="90"/>
      <point x="159" y="30"/>
      <point x="92" y="30" type="curve" smooth="yes"/>
      <point x="69" y="30"/>
      <point x="45" y="37"/>
      <point x="22" y="52" type="curve"/>
      <point x="2" y="19" type="line"/>
      <point x="31" y="3"/>
      <point x="61" y="-5"/>
      <point x="89" y="-5" type="curve" smooth="yes"/>
      <point x="194" y="-5"/>
      <point x="282" y="94"/>
      <point x="282" y="220" type="curve" smooth="yes"/>
      <point x="282" y="301"/>
      <point x="235" y="355"/>
    </contour>
    <contour>
      <point x="158" y="320" type="curve" smooth="yes"/>
      <point x="216" y="320"/>
      <point x="250" y="273"/>
      <point x="243" y="205" type="curve"/>
      <point x="217" y="180"/>
      <point x="182" y="166"/>
      <point x="149" y="166" type="curve" smooth="yes"/>
      <point x="101" y="166"/>
      <point x="68" y="194"/>
      <point x="68" y="235" type="curve" smooth="yes"/>
      <point x="68" y="281"/>
      <point x="109" y="320"/>
    </contour>
  </outline>
</glyph>
<glyph name="uni2191" format="2">
  <advance width="480"/>
  <unicode hex="2191"/>
  <outline>
    <contour>
      <point x="229" y="0" type="line"/>
      <point x="275" y="0" type="line"/>
      <point x="275" y="651" type="line"/>
      <point x="449" y="418" type="line"/>
      <point x="483" y="442" type="line"/>
      <point x="253" y="750" type="line"/>
      <point x="23" y="442" type="line"/>
      <point x="59" y="416" type="line"/>
      <point x="229" y="644" type="line"/>
    </contour>
  </outline>
</glyph>
<glyph name="minus" format="2">
  <advance width="600"/>
  <unicode hex="2212"/>
  <outline>
    <contour>
      <point x="153" y="335" type="line"/>
      <point x="534" y="335" type="line"/>
      <point x="544" y="380" type="line"/>
      <point x="163" y="380" type="line"/>
    </contour>
  </outline>
</glyph>
<glyph name="notequal" format="2">
  <advance width="600"/>
  <unicode hex="2260"/>
  <outline>
    <contour>
      <point x="120" y="134" type="line"/>
      <point x="164" y="134" type="line"/>
      <point x="279" y="259" type="line"/>
      <point x="517" y="259" type="line"/>
      <point x="527" y="304" type="line"/>
      <point x="320" y="304" type="line"/>
      <point x="419" y="411" type="line"/>
      <point x="550" y="411" type="line"/>
      <point x="560" y="456" type="line"/>
      <point x="460" y="456" type="line"/>
      <point x="575" y="581" type="line"/>
      <point x="531" y="581" type="line"/>
      <point x="416" y="456" type="line"/>
      <point x="179" y="456" type="line"/>
      <point x="169" y="411" type="line"/>
      <point x="375" y="411" type="line"/>
      <point x="276" y="304" type="line"/>
      <point x="146" y="304" type="line"/>
      <point x="136" y="259" type="line"/>
      <point x="235" y="259" type="line"/>
    </contour>
  </outline>
</glyph>
<glyph name=".notdef" format="2">
  <advance width="514"/>
  <outline>
    <contour>
      <point x="62" y="-100" type="line"/>
      <point x="456" y="-100" type="line"/>
      <point x="456" y="750" type="line"/>
      <point x="62" y="750" type="line"/>
    </contour>
  </outline>
</glyph>
<glyph name="a.school" format="2">
  <advance width="555"/>
  <anchor x="326" y="481" name="top"/>
  <anchor x="426" y="0" name="bottom"/>
  <outline>
    <contour>
      <point x="250" y="-8" type="curve" smooth="yes"/>
      <point x="301" y="-8"/>
      <point x="347" y="9"/>
      <point x="387" y="44" type="curve"/>
      <point x="377" y="0" type="line"/>
      <point x="426" y="0" type="line"/>
      <point x="529" y="481" type="line"/>
      <point x="480" y="481" type="line"/>
      <point x="464" y="406" type="line"/>
      <point x="427" y="462"/>
      <point x="369" y="487"/>
      <point x="305" y="487" type="curve" smooth="yes"/>
      <point x="167" y="487"/>
      <point x="55" y="361"/>
      <point x="55" y="209" type="curve" smooth="yes"/>
      <point x="55" y="83"/>
      <point x="138" y="-8"/>
    </contour>
    <contour>
      <point x="264" y="36" type="curve" smooth="yes"/>
      <point x="170" y="36"/>
      <point x="104" y="107"/>
      <point x="104" y="213" type="curve" smooth="yes"/>
      <point x="104" y="341"/>
      <point x="196" y="441"/>
      <point x="310" y="441" type="curve" smooth="yes"/>
      <point x="372" y="441"/>
      <point x="428" y="407"/>
      <point x="453" y="357" type="curve"/>
      <point x="396" y="88" type="line"/>
      <point x="360" y="55"/>
      <point x="312" y="36"/>
    </contour>
  </outline>
</glyph>
<glyph name="commaaccent" format="2">
  <advance width="600"/>
  <outline>
    <contour>
      <point x="125" y="-266" type="line"/>
      <point x="164" y="-266" type="line"/>
      <point x="262" y="-86" type="line"/>
      <point x="206" y="-86" type="line"/>
    </contour>
  </outline>
</glyph>
<glyph name="cordinal" format="2">
  <advance width="391"/>
  <outline>
    <contour>
      <point x="265" y="323" type="curve" smooth="yes"/>
      <point x="309" y="323"/>
      <point x="354" y="338"/>
      <point x="394" y="365" type="curve"/>
      <point x="376" y="400" type="line"/>
      <point x="341" y="376"/>
      <point x="306" y="364"/>
      <point x="270" y="364" type="curve" smooth="yes"/>
      <point x="195" y="364"/>
      <point x="139" y="421"/>
      <point x="139" y="500" type="curve" smooth="yes"/>
      <point x="139" y="589"/>
      <point x="213" y="670"/>
      <point x="297" y="670" type="curve" smooth="yes"/>
      <point x="345" y="670"/>
      <point x="393" y="645"/>
      <point x="416" y="608" type="curve"/>
      <point x="448" y="633" type="line"/>
      <point x="420" y="679"/>
      <point x="359" y="711"/>
      <point x="298" y="711" type="curve" smooth="yes"/>
      <point x="185" y="711"/>
      <point x="93" y="614"/>
      <point x="93" y="499" type="curve" smooth="yes"/>
      <point x="93" y="398"/>
      <point x="167" y="323"/>
    </contour>
  </outline>
</glyph>
<glyph name="exclamdown.cap" format="2">
  <advance width="201"/>
  <outline>
    <contour>
      <point x="179" y="506" type="line"/>
      <point x="138" y="506" type="line"/>
      <point x="21" y="-5" type="line"/>
      <point x="74" y="-5" type="line"/>
    </contour>
    <contour>
      <point x="199" y="713" type="curve" smooth="yes"/>
      <point x="169" y="713"/>
      <point x="144" y="690"/>
      <point x="144" y="661" type="curve" smooth="yes"/>
      <point x="144" y="638"/>
      <point x="161" y="620"/>
      <point x="183" y="620" type="curve" smooth="yes"/>
      <point x="213" y="620"/>
      <point x="238" y="643"/>
      <point x="238" y="672" type="curve" smooth="yes"/>
      <point x="238" y="695"/>
      <point x="221" y="713"/>
    </contour>
  </outline>
</glyph>
<glyph name="five.tab" format="2">
  <advance width="600"/>
  <outline>
    <contour>
      <point x="266" y="-11" type="curve" smooth="yes"/>
      <point x="409" y="-11"/>
      <point x="527" y="101"/>
      <point x="527" y="237" type="curve" smooth="yes"/>
      <point x="527" y="358"/>
      <point x="446" y="431"/>
      <point x="314" y="431" type="curve" smooth="yes"/>
      <point x="267" y="431"/>
      <point x="230" y="421"/>
      <point x="180" y="400" type="curve"/>
      <point x="245" y="655" type="line"/>
      <point x="576" y="655" type="line"/>
      <point x="586" y="700" type="line"/>
      <point x="209" y="700" type="line"/>
      <point x="125" y="368" type="line"/>
      <point x="156" y="354" type="line"/>
      <point x="213" y="377"/>
      <point x="258" y="387"/>
      <point x="303" y="387" type="curve" smooth="yes"/>
      <point x="414" y="387"/>
      <point x="476" y="331"/>
      <point x="476" y="234" type="curve" smooth="yes"/>
      <point x="476" y="120"/>
      <point x="388" y="34"/>
      <point x="268" y="34" type="curve" smooth="yes"/>
      <point x="186" y="34"/>
      <point x="123" y="65"/>
      <point x="73" y="132" type="curve"/>
      <point x="39" y="100" type="line"/>
      <point x="89" y="30"/>
      <point x="170" y="-11"/>
    </contour>
  </outline>
</glyph>
<glyph name="four.tab" format="2">
  <advance width="599"/>
  <outline>
    <contour>
      <point x="368" y="0" type="line"/>
      <point x="417" y="0" type="line"/>
      <point x="459" y="195" type="line"/>
      <point x="560" y="195" type="line"/>
      <point x="570" y="240" type="line"/>
      <point x="468" y="240" type="line"/>
      <point x="567" y="700" type="line"/>
      <point x="516" y="700" type="line"/>
      <point x="35" y="233" type="line"/>
      <point x="27" y="195" type="line"/>
      <point x="410" y="195" type="line"/>
    </contour>
    <contour>
      <point x="107" y="240" type="line"/>
      <point x="501" y="622" type="line"/>
      <point x="419" y="240" type="line"/>
    </contour>
  </outline>
</glyph>
<glyph name="g.alt" format="2">
  <advance width="500"/>
  <note>
Version created Sun Jan 13 16:53:00 2019
</note>
  <anchor x="286" y="480" name="top"/>
  <outline>
    <contour>
      <point x="194" y="-219" type="curve" smooth="yes"/>
      <point x="329" y="-219"/>
      <point x="426" y="-162"/>
      <point x="426" y="-83" type="curve" smooth="yes"/>
      <point x="426" y="-23"/>
      <point x="386" y="16"/>
      <point x="318" y="23" type="curve" smooth="yes"/>
      <point x="149" y="41" type="line" smooth="yes"/>
      <point x="114" y="45"/>
      <point x="97" y="61"/>
      <point x="97" y="83" type="curve" smooth="yes"/>
      <point x="97" y="113"/>
      <point x="132" y="139"/>
      <point x="180" y="144" type="curve"/>
      <point x="202" y="136"/>
      <point x="225" y="131"/>
      <point x="250" y="131" type="curve" smooth="yes"/>
      <point x="360" y="131"/>
      <point x="453" y="225"/>
      <point x="453" y="326" type="curve" smooth="yes"/>
      <point x="453" y="352"/>
      <point x="447" y="375"/>
      <point x="437" y="397" type="curve"/>
      <point x="442" y="439"/>
      <point x="471" y="466"/>
      <point x="509" y="466" type="curve" smooth="yes"/>
      <point x="525" y="466"/>
      <point x="538" y="463"/>
      <point x="551" y="460" type="curve"/>
      <point x="561" y="514" type="line"/>
      <point x="551" y="516"/>
      <point x="536" y="518"/>
      <point x="526" y="518" type="curve" smooth="yes"/>
      <point x="470" y="518"/>
      <point x="430" y="485"/>
      <point x="419" y="425" type="curve"/>
      <point x="388" y="464"/>
      <point x="339" y="489"/>
      <point x="282" y="489" type="curve" smooth="yes"/>
      <point x="172" y="489"/>
      <point x="79" y="395"/>
      <point x="79" y="294" type="curve" smooth="yes"/>
      <point x="79" y="238"/>
      <point x="106" y="190"/>
      <point x="149" y="161" type="curve"/>
      <point x="91" y="150"/>
      <point x="48" y="111"/>
      <point x="48" y="69" type="curve" smooth="yes"/>
      <point x="48" y="42"/>
      <point x="63" y="20"/>
      <point x="90" y="7" type="curve"/>
      <point x="10" y="-15"/>
      <point x="-22" y="-43"/>
      <point x="-22" y="-93" type="curve" smooth="yes"/>
      <point x="-22" y="-164"/>
      <point x="56" y="-219"/>
    </contour>
    <contour>
      <point x="252" y="175" type="curve" smooth="yes"/>
      <point x="180" y="175"/>
      <point x="128" y="224"/>
      <point x="128" y="295" type="curve" smooth="yes"/>
      <point x="128" y="376"/>
      <point x="198" y="445"/>
      <point x="280" y="445" type="curve" smooth="yes"/>
      <point x="352" y="445"/>
      <point x="404" y="396"/>
      <point x="404" y="325" type="curve" smooth="yes"/>
      <point x="404" y="244"/>
      <point x="334" y="175"/>
    </contour>
    <contour>
      <point x="196" y="-178" type="curve" smooth="yes"/>
      <point x="87" y="-178"/>
      <point x="28" y="-145"/>
      <point x="28" y="-92" type="curve" smooth="yes"/>
      <point x="28" y="-48"/>
      <point x="65" y="-19"/>
      <point x="127" y="-5" type="curve"/>
      <point x="130" y="-5"/>
      <point x="134" y="-6"/>
      <point x="137" y="-6" type="curve" smooth="yes"/>
      <point x="303" y="-23" type="line" smooth="yes"/>
      <point x="351" y="-28"/>
      <point x="376" y="-45"/>
      <point x="376" y="-82" type="curve" smooth="yes"/>
      <point x="376" y="-136"/>
      <point x="299" y="-178"/>
    </contour>
  </outline>
</glyph>
<glyph name="gcommaaccent.alt" format="2">
  <advance width="500"/>
  <outline>
    <contour>
      <point x="453" y="786" type="line"/>
      <point x="414" y="786" type="line"/>
      <point x="316" y="606" type="line"/>
      <point x="372" y="606" type="line"/>
    </contour>
    <component base="g.alt"/>
  </outline>
</glyph>
<glyph name="gravecomb" format="2">
  <anchor x="351" y="481" name="_top"/>
  <outline>
    <contour>
      <point x="362" y="579" type="line"/>
      <point x="410" y="579" type="line"/>
      <point x="307" y="695" type="line"/>
      <point x="232" y="695" type="line"/>
    </contour>
  </outline>
</glyph>
<glyph name="reversequotedblleft" format="2">
  <advance width="416"/>
  <outline>
    <contour>
      <point x="234" y="538" type="line"/>
      <point x="274" y="538" type="line"/>
      <point x="224" y="750" type="line"/>
      <point x="168" y="750" type="line"/>
    </contour>
    <contour>
      <point x="377" y="538" type="line"/>
      <point x="417" y="538" type="line"/>
      <point x="367" y="750" type="line"/>
      <point x="311" y="750" type="line"/>
    </contour>
  </outline>
</glyph>
<glyph name="reversequoteleft" format="2">
  <advance width="273"/>
  <outline>
    <contour>
      <point x="234" y="538" type="line"/>
      <point x="274" y="538" type="line"/>
      <point x="224" y="750" type="line"/>
      <point x="168" y="750" type="line"/>
    </contour>
  </outline>
</glyph>
<glyph name="three.tab" format="2">
  <advance width="600"/>
  <outline>
    <contour>
      <point x="267" y="-11" type="curve" smooth="yes"/>
      <point x="407" y="-11"/>
      <point x="508" y="79"/>
      <point x="508" y="204" type="curve" smooth="yes"/>
      <point x="508" y="270"/>
      <point x="463" y="328"/>
      <point x="397" y="352" type="curve"/>
      <point x="497" y="387"/>
      <point x="549" y="450"/>
      <point x="549" y="538" type="curve" smooth="yes"/>
      <point x="549" y="641"/>
      <point x="464" y="711"/>
      <point x="338" y="711" type="curve" smooth="yes"/>
      <point x="256" y="711"/>
      <point x="188" y="686"/>
      <point x="134" y="634" type="curve"/>
      <point x="162" y="599" type="line"/>
      <point x="220" y="648"/>
      <point x="269" y="666"/>
      <point x="340" y="666" type="curve" smooth="yes"/>
      <point x="434" y="666"/>
      <point x="498" y="611"/>
      <point x="498" y="530" type="curve" smooth="yes"/>
      <point x="498" y="450"/>
      <point x="424" y="383"/>
      <point x="337" y="383" type="curve" smooth="yes"/>
      <point x="253" y="383" type="line"/>
      <point x="244" y="339" type="line"/>
      <point x="300" y="339" type="line" smooth="yes"/>
      <point x="391" y="339"/>
      <point x="457" y="279"/>
      <point x="457" y="196" type="curve" smooth="yes"/>
      <point x="457" y="101"/>
      <point x="382" y="34"/>
      <point x="275" y="34" type="curve" smooth="yes"/>
      <point x="191" y="34"/>
      <point x="125" y="68"/>
      <point x="69" y="140" type="curve"/>
      <point x="31" y="107" type="line"/>
      <point x="97" y="27"/>
      <point x="172" y="-11"/>
    </contour>
  </outline>
</glyph>
<glyph name="zero.tab" format="2">
  <advance width="600"/>
  <outline>
    <contour>
      <point x="283" y="-11" type="curve" smooth="yes"/>
      <point x="433" y="-11"/>
      <point x="579" y="174"/>
      <point x="579" y="428" type="curve" smooth="yes"/>
      <point x="579" y="614"/>
      <point x="487" y="711"/>
      <point x="365" y="711" type="curve" smooth="yes"/>
      <point x="215" y="711"/>
      <point x="69" y="526"/>
      <point x="69" y="272" type="curve" smooth="yes"/>
      <point x="69" y="86"/>
      <point x="161" y="-11"/>
    </contour>
    <contour>
      <point x="281" y="35" type="curve" smooth="yes"/>
      <point x="235" y="35"/>
      <point x="196" y="55"/>
      <point x="167" y="94" type="curve"/>
      <point x="503" y="565" type="line"/>
      <point x="519" y="527"/>
      <point x="528" y="480"/>
      <point x="528" y="424" type="curve" smooth="yes"/>
      <point x="528" y="204"/>
      <point x="409" y="35"/>
    </contour>
    <contour>
      <point x="145" y="135" type="line"/>
      <point x="129" y="173"/>
      <point x="120" y="220"/>
      <point x="120" y="276" type="curve" smooth="yes"/>
      <point x="120" y="496"/>
      <point x="239" y="665"/>
      <point x="367" y="665" type="curve" smooth="yes"/>
      <point x="413" y="665"/>
      <point x="452" y="645"/>
      <point x="481" y="606" type="curve"/>
    </contour>
  </outline>
</glyph>
